<?xml version="1.0" encoding="UTF-8"?>
<!DOCTYPE svg PUBLIC "-//W3C//DTD SVG 1.1//EN" "http://www.w3.org/Graphics/SVG/1.1/DTD/svg11.dtd">
<svg xmlns="http://www.w3.org/2000/svg" version="1.1" width="402px" height="341px" style="shape-rendering:geometricPrecision; text-rendering:geometricPrecision; image-rendering:optimizeQuality; fill-rule:evenodd; clip-rule:evenodd" xmlns:xlink="http://www.w3.org/1999/xlink">
<g><path style="opacity:1" fill="#fefefe" d="M -0.5,-0.5 C 133.5,-0.5 267.5,-0.5 401.5,-0.5C 401.5,113.167 401.5,226.833 401.5,340.5C 267.5,340.5 133.5,340.5 -0.5,340.5C -0.5,226.833 -0.5,113.167 -0.5,-0.5 Z"/></g>
<g><path style="opacity:1" fill="#aaaaaa" d="M 21.5,11.5 C 138.5,11.3333 255.5,11.5 372.5,12C 376.02,12.504 378.52,14.3374 380,17.5C 380.667,117.833 380.667,218.167 380,318.5C 379.5,323 377,325.5 372.5,326C 255.5,326.667 138.5,326.667 21.5,326C 18.3374,324.52 16.504,322.02 16,318.5C 15.3333,218.167 15.3333,117.833 16,17.5C 17.3597,14.9774 19.193,12.9774 21.5,11.5 Z"/></g>
<g><path style="opacity:1" fill="#fefefe" d="M 22.5,13.5 C 140.223,13.0058 257.89,13.5058 375.5,15C 376.701,15.9025 377.535,17.0692 378,18.5C 378.993,119.556 378.66,220.556 377,321.5C 375.829,322.893 374.329,323.727 372.5,324C 255.086,324.996 137.753,324.663 20.5,323C 19.1068,321.829 18.2735,320.329 18,318.5C 17.3333,218.5 17.3333,118.5 18,18.5C 19.025,16.313 20.525,14.6464 22.5,13.5 Z"/></g>
<g><path style="opacity:1" fill="#a1b6e6" d="M 137.5,35.5 C 137.5,38.1667 137.5,40.8333 137.5,43.5C 131.327,43.0904 126.161,45.0904 122,49.5C 121.282,48.5494 120.449,48.3828 119.5,49C 118.284,50.7398 116.618,51.7398 114.5,52C 112.58,56.256 109.58,59.5893 105.5,62C 100.015,63.839 94.3481,65.1724 88.5,66C 86.269,68.7481 85.269,71.9148 85.5,75.5C 84.5041,75.4142 83.6708,75.7476 83,76.5C 82.7216,75.5842 82.2216,74.9175 81.5,74.5C 78.5266,73.4581 76.1932,71.6248 74.5,69C 72.5115,68.0617 70.5115,67.2283 68.5,66.5C 68.5,66.1667 68.5,65.8333 68.5,65.5C 73.37,64.1958 78.37,64.1958 83.5,65.5C 85.6932,63.2794 88.3599,61.946 91.5,61.5C 93.316,59.1831 95.316,57.0165 97.5,55C 105.532,52.2368 112.699,48.0702 119,42.5C 123.867,40.9825 128.367,38.8158 132.5,36C 134.134,35.5065 135.801,35.3398 137.5,35.5 Z"/></g>
<g><path style="opacity:1" fill="#a1b6e6" d="M 247.5,35.5 C 247.5,38.1667 247.5,40.8333 247.5,43.5C 241.327,43.0904 236.161,45.0904 232,49.5C 231.282,48.5494 230.449,48.3828 229.5,49C 228.284,50.7398 226.618,51.7398 224.5,52C 222.58,56.256 219.58,59.5893 215.5,62C 210.015,63.839 204.348,65.1724 198.5,66C 196.269,68.7481 195.269,71.9148 195.5,75.5C 194.504,75.4142 193.671,75.7476 193,76.5C 192.722,75.5842 192.222,74.9175 191.5,74.5C 188.527,73.4581 186.193,71.6248 184.5,69C 182.512,68.0617 180.512,67.2283 178.5,66.5C 178.5,66.1667 178.5,65.8333 178.5,65.5C 183.37,64.1958 188.37,64.1958 193.5,65.5C 195.693,63.2794 198.36,61.946 201.5,61.5C 203.316,59.1831 205.316,57.0165 207.5,55C 215.532,52.2368 222.699,48.0702 229,42.5C 233.867,40.9825 238.367,38.8158 242.5,36C 244.134,35.5065 245.801,35.3398 247.5,35.5 Z"/></g>
<g><path style="opacity:1" fill="#a1b6e6" d="M 357.5,35.5 C 357.5,38.1667 357.5,40.8333 357.5,43.5C 351.327,43.0904 346.161,45.0904 342,49.5C 341.282,48.5494 340.449,48.3828 339.5,49C 338.284,50.7398 336.618,51.7398 334.5,52C 332.58,56.256 329.58,59.5893 325.5,62C 320.015,63.839 314.348,65.1724 308.5,66C 306.269,68.7481 305.269,71.9148 305.5,75.5C 304.504,75.4142 303.671,75.7476 303,76.5C 302.722,75.5842 302.222,74.9175 301.5,74.5C 298.527,73.4581 296.193,71.6248 294.5,69C 292.512,68.0617 290.512,67.2283 288.5,66.5C 288.5,66.1667 288.5,65.8333 288.5,65.5C 293.37,64.1958 298.37,64.1958 303.5,65.5C 305.693,63.2794 308.36,61.946 311.5,61.5C 313.316,59.1831 315.316,57.0165 317.5,55C 325.532,52.2368 332.699,48.0702 339,42.5C 343.867,40.9825 348.367,38.8158 352.5,36C 354.134,35.5065 355.801,35.3398 357.5,35.5 Z"/></g>
<g><path style="opacity:1" fill="#89a3de" d="M 99.5,33.5 C 99.1412,35.371 98.1412,36.871 96.5,38C 92.4935,41.0053 88.1602,43.5053 83.5,45.5C 80.5091,48.2799 77.3425,50.9466 74,53.5C 73.1268,53.2645 72.2935,52.9312 71.5,52.5C 65.2433,55.9492 58.9099,59.1159 52.5,62C 51,63.5 49.5,65 48,66.5C 44.7121,66.3416 41.2121,66.3416 37.5,66.5C 37.5,55.5 37.5,44.5 37.5,33.5C 58.1667,33.5 78.8333,33.5 99.5,33.5 Z"/></g>
<g><path style="opacity:1" fill="#89a3de" d="M 209.5,33.5 C 209.141,35.371 208.141,36.871 206.5,38C 202.494,41.0053 198.16,43.5053 193.5,45.5C 190.509,48.2799 187.342,50.9466 184,53.5C 183.127,53.2645 182.293,52.9312 181.5,52.5C 175.243,55.9492 168.91,59.1159 162.5,62C 161,63.5 159.5,65 158,66.5C 154.712,66.3416 151.212,66.3416 147.5,66.5C 147.5,55.5 147.5,44.5 147.5,33.5C 168.167,33.5 188.833,33.5 209.5,33.5 Z"/></g>
<g><path style="opacity:1" fill="#89a3de" d="M 319.5,33.5 C 319.141,35.371 318.141,36.871 316.5,38C 312.494,41.0053 308.16,43.5053 303.5,45.5C 300.509,48.2799 297.342,50.9466 294,53.5C 293.127,53.2645 292.293,52.9312 291.5,52.5C 285.243,55.9492 278.91,59.1159 272.5,62C 271,63.5 269.5,65 268,66.5C 264.712,66.3416 261.212,66.3416 257.5,66.5C 257.5,55.5 257.5,44.5 257.5,33.5C 278.167,33.5 298.833,33.5 319.5,33.5 Z"/></g>
<g><path style="opacity:1" fill="#97afe5" d="M 99.5,33.5 C 112.544,32.853 125.211,33.5197 137.5,35.5C 135.801,35.3398 134.134,35.5065 132.5,36C 128.367,38.8158 123.867,40.9825 119,42.5C 112.699,48.0702 105.532,52.2368 97.5,55C 95.316,57.0165 93.316,59.1831 91.5,61.5C 88.3599,61.946 85.6932,63.2794 83.5,65.5C 78.37,64.1958 73.37,64.1958 68.5,65.5C 66.6096,65.2965 65.1096,65.9632 64,67.5C 64.2826,71.8012 62.7826,75.1345 59.5,77.5C 58.2811,81.6047 56.7811,85.6047 55,89.5C 50.3733,92.7912 46.04,96.4579 42,100.5C 41.1506,103.521 40.3173,106.521 39.5,109.5C 39.1583,110.338 38.4916,110.672 37.5,110.5C 37.5,95.8333 37.5,81.1667 37.5,66.5C 41.2121,66.3416 44.7121,66.3416 48,66.5C 49.5,65 51,63.5 52.5,62C 58.9099,59.1159 65.2433,55.9492 71.5,52.5C 72.2935,52.9312 73.1268,53.2645 74,53.5C 77.3425,50.9466 80.5091,48.2799 83.5,45.5C 88.1602,43.5053 92.4935,41.0053 96.5,38C 98.1412,36.871 99.1412,35.371 99.5,33.5 Z"/></g>
<g><path style="opacity:1" fill="#a8bfe8" d="M 137.5,43.5 C 137.5,46.8333 137.5,50.1667 137.5,53.5C 133.673,54.3417 130.006,54.3417 126.5,53.5C 124.141,56.0618 121.474,58.2284 118.5,60C 119.328,60.9147 120.328,61.5814 121.5,62C 117.59,66.2479 112.924,67.4146 107.5,65.5C 106.808,66.0253 106.308,66.6919 106,67.5C 105.667,67.1667 105.333,66.8333 105,66.5C 104.02,67.9814 102.853,69.3147 101.5,70.5C 102.665,71.5836 103.998,72.4169 105.5,73C 102.891,73.9431 100.891,75.6097 99.5,78C 98.2068,78.49 96.8734,78.6567 95.5,78.5C 95.9827,69.7819 93.1494,69.1152 87,76.5C 86.6174,75.944 86.1174,75.6107 85.5,75.5C 85.269,71.9148 86.269,68.7481 88.5,66C 94.3481,65.1724 100.015,63.839 105.5,62C 109.58,59.5893 112.58,56.256 114.5,52C 116.618,51.7398 118.284,50.7398 119.5,49C 120.449,48.3828 121.282,48.5494 122,49.5C 126.161,45.0904 131.327,43.0904 137.5,43.5 Z"/></g>
<g><path style="opacity:1" fill="#97afe5" d="M 209.5,33.5 C 222.544,32.853 235.211,33.5197 247.5,35.5C 245.801,35.3398 244.134,35.5065 242.5,36C 238.367,38.8158 233.867,40.9825 229,42.5C 222.699,48.0702 215.532,52.2368 207.5,55C 205.316,57.0165 203.316,59.1831 201.5,61.5C 198.36,61.946 195.693,63.2794 193.5,65.5C 188.37,64.1958 183.37,64.1958 178.5,65.5C 176.61,65.2965 175.11,65.9632 174,67.5C 174.283,71.8012 172.783,75.1345 169.5,77.5C 168.281,81.6047 166.781,85.6047 165,89.5C 160.373,92.7912 156.04,96.4579 152,100.5C 151.151,103.521 150.317,106.521 149.5,109.5C 149.158,110.338 148.492,110.672 147.5,110.5C 147.5,95.8333 147.5,81.1667 147.5,66.5C 151.212,66.3416 154.712,66.3416 158,66.5C 159.5,65 161,63.5 162.5,62C 168.91,59.1159 175.243,55.9492 181.5,52.5C 182.293,52.9312 183.127,53.2645 184,53.5C 187.342,50.9466 190.509,48.2799 193.5,45.5C 198.16,43.5053 202.494,41.0053 206.5,38C 208.141,36.871 209.141,35.371 209.5,33.5 Z"/></g>
<g><path style="opacity:1" fill="#a8bfe8" d="M 247.5,43.5 C 247.5,46.8333 247.5,50.1667 247.5,53.5C 243.673,54.3417 240.006,54.3417 236.5,53.5C 234.141,56.0618 231.474,58.2284 228.5,60C 229.328,60.9147 230.328,61.5814 231.5,62C 227.59,66.2479 222.924,67.4146 217.5,65.5C 216.808,66.0253 216.308,66.6919 216,67.5C 215.667,67.1667 215.333,66.8333 215,66.5C 214.02,67.9814 212.853,69.3147 211.5,70.5C 212.665,71.5836 213.998,72.4169 215.5,73C 212.891,73.9431 210.891,75.6097 209.5,78C 208.207,78.49 206.873,78.6567 205.5,78.5C 205.983,69.7819 203.149,69.1152 197,76.5C 196.617,75.944 196.117,75.6107 195.5,75.5C 195.269,71.9148 196.269,68.7481 198.5,66C 204.348,65.1724 210.015,63.839 215.5,62C 219.58,59.5893 222.58,56.256 224.5,52C 226.618,51.7398 228.284,50.7398 229.5,49C 230.449,48.3828 231.282,48.5494 232,49.5C 236.161,45.0904 241.327,43.0904 247.5,43.5 Z"/></g>
<g><path style="opacity:1" fill="#97afe5" d="M 319.5,33.5 C 332.544,32.853 345.211,33.5197 357.5,35.5C 355.801,35.3398 354.134,35.5065 352.5,36C 348.367,38.8158 343.867,40.9825 339,42.5C 332.699,48.0702 325.532,52.2368 317.5,55C 315.316,57.0165 313.316,59.1831 311.5,61.5C 308.36,61.946 305.693,63.2794 303.5,65.5C 298.37,64.1958 293.37,64.1958 288.5,65.5C 286.61,65.2965 285.11,65.9632 284,67.5C 284.283,71.8012 282.783,75.1345 279.5,77.5C 278.281,81.6047 276.781,85.6047 275,89.5C 270.373,92.7912 266.04,96.4579 262,100.5C 261.151,103.521 260.317,106.521 259.5,109.5C 259.158,110.338 258.492,110.672 257.5,110.5C 257.5,95.8333 257.5,81.1667 257.5,66.5C 261.212,66.3416 264.712,66.3416 268,66.5C 269.5,65 271,63.5 272.5,62C 278.91,59.1159 285.243,55.9492 291.5,52.5C 292.293,52.9312 293.127,53.2645 294,53.5C 297.342,50.9466 300.509,48.2799 303.5,45.5C 308.16,43.5053 312.494,41.0053 316.5,38C 318.141,36.871 319.141,35.371 319.5,33.5 Z"/></g>
<g><path style="opacity:1" fill="#a8bfe8" d="M 357.5,43.5 C 357.5,46.8333 357.5,50.1667 357.5,53.5C 353.673,54.3417 350.006,54.3417 346.5,53.5C 344.141,56.0618 341.474,58.2284 338.5,60C 339.328,60.9147 340.328,61.5814 341.5,62C 337.59,66.2479 332.924,67.4146 327.5,65.5C 326.808,66.0253 326.308,66.6919 326,67.5C 325.667,67.1667 325.333,66.8333 325,66.5C 324.02,67.9814 322.853,69.3147 321.5,70.5C 322.665,71.5836 323.998,72.4169 325.5,73C 322.891,73.9431 320.891,75.6097 319.5,78C 318.207,78.49 316.873,78.6567 315.5,78.5C 315.983,69.7819 313.149,69.1152 307,76.5C 306.617,75.944 306.117,75.6107 305.5,75.5C 305.269,71.9148 306.269,68.7481 308.5,66C 314.348,65.1724 320.015,63.839 325.5,62C 329.58,59.5893 332.58,56.256 334.5,52C 336.618,51.7398 338.284,50.7398 339.5,49C 340.449,48.3828 341.282,48.5494 342,49.5C 346.161,45.0904 351.327,43.0904 357.5,43.5 Z"/></g>
<g><path style="opacity:1" fill="#b0c9e7" d="M 137.5,53.5 C 137.5,58.5 137.5,63.5 137.5,68.5C 134.886,68.2771 133.219,69.4438 132.5,72C 126.158,74.5204 120.825,78.3538 116.5,83.5C 112.161,83.4977 107.828,83.4977 103.5,83.5C 104.098,86.6183 102.765,88.9516 99.5,90.5C 100.127,91.4168 100.461,92.4168 100.5,93.5C 95.6825,92.3627 91.3491,90.196 87.5,87C 87.3379,82.905 85.5046,79.7384 82,77.5C 81.5172,76.552 81.3505,75.552 81.5,74.5C 82.2216,74.9175 82.7216,75.5842 83,76.5C 83.6708,75.7476 84.5041,75.4142 85.5,75.5C 86.1174,75.6107 86.6174,75.944 87,76.5C 93.1494,69.1152 95.9827,69.7819 95.5,78.5C 96.8734,78.6567 98.2068,78.49 99.5,78C 100.891,75.6097 102.891,73.9431 105.5,73C 103.998,72.4169 102.665,71.5836 101.5,70.5C 102.853,69.3147 104.02,67.9814 105,66.5C 105.333,66.8333 105.667,67.1667 106,67.5C 106.308,66.6919 106.808,66.0253 107.5,65.5C 112.924,67.4146 117.59,66.2479 121.5,62C 120.328,61.5814 119.328,60.9147 118.5,60C 121.474,58.2284 124.141,56.0618 126.5,53.5C 130.006,54.3417 133.673,54.3417 137.5,53.5 Z"/></g>
<g><path style="opacity:1" fill="#b0c9e7" d="M 247.5,53.5 C 247.5,58.5 247.5,63.5 247.5,68.5C 244.886,68.2771 243.219,69.4438 242.5,72C 236.158,74.5204 230.825,78.3538 226.5,83.5C 222.161,83.4977 217.828,83.4977 213.5,83.5C 214.098,86.6183 212.765,88.9516 209.5,90.5C 210.127,91.4168 210.461,92.4168 210.5,93.5C 205.682,92.3627 201.349,90.196 197.5,87C 197.338,82.905 195.505,79.7384 192,77.5C 191.517,76.552 191.351,75.552 191.5,74.5C 192.222,74.9175 192.722,75.5842 193,76.5C 193.671,75.7476 194.504,75.4142 195.5,75.5C 196.117,75.6107 196.617,75.944 197,76.5C 203.149,69.1152 205.983,69.7819 205.5,78.5C 206.873,78.6567 208.207,78.49 209.5,78C 210.891,75.6097 212.891,73.9431 215.5,73C 213.998,72.4169 212.665,71.5836 211.5,70.5C 212.853,69.3147 214.02,67.9814 215,66.5C 215.333,66.8333 215.667,67.1667 216,67.5C 216.308,66.6919 216.808,66.0253 217.5,65.5C 222.924,67.4146 227.59,66.2479 231.5,62C 230.328,61.5814 229.328,60.9147 228.5,60C 231.474,58.2284 234.141,56.0618 236.5,53.5C 240.006,54.3417 243.673,54.3417 247.5,53.5 Z"/></g>
<g><path style="opacity:1" fill="#b0c9e7" d="M 357.5,53.5 C 357.5,58.5 357.5,63.5 357.5,68.5C 354.886,68.2771 353.219,69.4438 352.5,72C 346.158,74.5204 340.825,78.3538 336.5,83.5C 332.161,83.4977 327.828,83.4977 323.5,83.5C 324.098,86.6183 322.765,88.9516 319.5,90.5C 320.127,91.4168 320.461,92.4168 320.5,93.5C 315.682,92.3627 311.349,90.196 307.5,87C 307.338,82.905 305.505,79.7384 302,77.5C 301.517,76.552 301.351,75.552 301.5,74.5C 302.222,74.9175 302.722,75.5842 303,76.5C 303.671,75.7476 304.504,75.4142 305.5,75.5C 306.117,75.6107 306.617,75.944 307,76.5C 313.149,69.1152 315.983,69.7819 315.5,78.5C 316.873,78.6567 318.207,78.49 319.5,78C 320.891,75.6097 322.891,73.9431 325.5,73C 323.998,72.4169 322.665,71.5836 321.5,70.5C 322.853,69.3147 324.02,67.9814 325,66.5C 325.333,66.8333 325.667,67.1667 326,67.5C 326.308,66.6919 326.808,66.0253 327.5,65.5C 332.924,67.4146 337.59,66.2479 341.5,62C 340.328,61.5814 339.328,60.9147 338.5,60C 341.474,58.2284 344.141,56.0618 346.5,53.5C 350.006,54.3417 353.673,54.3417 357.5,53.5 Z"/></g>
<g><path style="opacity:1" fill="#656b81" d="M 68.5,66.5 C 70.5115,67.2283 72.5115,68.0617 74.5,69C 76.1932,71.6248 78.5266,73.4581 81.5,74.5C 81.3505,75.552 81.5172,76.552 82,77.5C 85.5046,79.7384 87.3379,82.905 87.5,87C 91.3491,90.196 95.6825,92.3627 100.5,93.5C 102.167,95.5 103.833,97.5 105.5,99.5C 107.176,101.834 109.509,102.834 112.5,102.5C 112.714,104.144 112.38,105.644 111.5,107C 106.71,107.839 102.21,107.005 98,104.5C 95.9011,105.287 93.7345,105.62 91.5,105.5C 91.4415,102.269 89.9415,99.9354 87,98.5C 86.8122,96.524 86.9788,94.524 87.5,92.5C 86.6097,86.7634 83.2763,83.7634 77.5,83.5C 76.9811,88.0911 76.9811,92.7577 77.5,97.5C 75.9778,96.8091 74.9778,95.6424 74.5,94C 75.3295,92.5349 75.4962,91.0349 75,89.5C 74.2303,88.4019 73.397,88.4019 72.5,89.5C 71.0318,87.0842 70.3651,84.4175 70.5,81.5C 69.5,81.5 68.5,81.5 67.5,81.5C 67.5029,76.4725 67.8363,71.4725 68.5,66.5 Z"/></g>
<g><path style="opacity:1" fill="#656b81" d="M 178.5,66.5 C 180.512,67.2283 182.512,68.0617 184.5,69C 186.193,71.6248 188.527,73.4581 191.5,74.5C 191.351,75.552 191.517,76.552 192,77.5C 195.505,79.7384 197.338,82.905 197.5,87C 201.349,90.196 205.682,92.3627 210.5,93.5C 212.167,95.5 213.833,97.5 215.5,99.5C 217.176,101.834 219.509,102.834 222.5,102.5C 222.714,104.144 222.38,105.644 221.5,107C 216.71,107.839 212.21,107.005 208,104.5C 205.901,105.287 203.734,105.62 201.5,105.5C 201.441,102.269 199.941,99.9354 197,98.5C 196.812,96.524 196.979,94.524 197.5,92.5C 196.61,86.7634 193.276,83.7634 187.5,83.5C 186.981,88.0911 186.981,92.7577 187.5,97.5C 185.978,96.8091 184.978,95.6424 184.5,94C 185.33,92.5349 185.496,91.0349 185,89.5C 184.23,88.4019 183.397,88.4019 182.5,89.5C 181.032,87.0842 180.365,84.4175 180.5,81.5C 179.5,81.5 178.5,81.5 177.5,81.5C 177.503,76.4725 177.836,71.4725 178.5,66.5 Z"/></g>
<g><path style="opacity:1" fill="#656b81" d="M 288.5,66.5 C 290.512,67.2283 292.512,68.0617 294.5,69C 296.193,71.6248 298.527,73.4581 301.5,74.5C 301.351,75.552 301.517,76.552 302,77.5C 305.505,79.7384 307.338,82.905 307.5,87C 311.349,90.196 315.682,92.3627 320.5,93.5C 322.167,95.5 323.833,97.5 325.5,99.5C 327.176,101.834 329.509,102.834 332.5,102.5C 332.714,104.144 332.38,105.644 331.5,107C 326.71,107.839 322.21,107.005 318,104.5C 315.901,105.287 313.734,105.62 311.5,105.5C 311.441,102.269 309.941,99.9354 307,98.5C 306.812,96.524 306.979,94.524 307.5,92.5C 306.61,86.7634 303.276,83.7634 297.5,83.5C 296.981,88.0911 296.981,92.7577 297.5,97.5C 295.978,96.8091 294.978,95.6424 294.5,94C 295.33,92.5349 295.496,91.0349 295,89.5C 294.23,88.4019 293.397,88.4019 292.5,89.5C 291.032,87.0842 290.365,84.4175 290.5,81.5C 289.5,81.5 288.5,81.5 287.5,81.5C 287.503,76.4725 287.836,71.4725 288.5,66.5 Z"/></g>
<g><path style="opacity:1" fill="#c6d9e7" d="M 137.5,68.5 C 137.5,76.5 137.5,84.5 137.5,92.5C 135.712,92.2148 134.045,92.5481 132.5,93.5C 130.879,95.4228 129.046,97.0895 127,98.5C 124.241,97.3459 121.575,97.6792 119,99.5C 115.991,97.7901 113.658,95.4568 112,92.5C 109.566,91.6777 107.066,91.3444 104.5,91.5C 104.833,93.5 105.167,95.5 105.5,97.5C 110.803,98.8257 116.136,100.159 121.5,101.5C 122.193,102.518 122.859,103.518 123.5,104.5C 117.911,101.601 111.911,99.9342 105.5,99.5C 103.833,97.5 102.167,95.5 100.5,93.5C 100.461,92.4168 100.127,91.4168 99.5,90.5C 102.765,88.9516 104.098,86.6183 103.5,83.5C 107.828,83.4977 112.161,83.4977 116.5,83.5C 120.825,78.3538 126.158,74.5204 132.5,72C 133.219,69.4438 134.886,68.2771 137.5,68.5 Z"/></g>
<g><path style="opacity:1" fill="#c6d9e7" d="M 247.5,68.5 C 247.5,76.5 247.5,84.5 247.5,92.5C 245.712,92.2148 244.045,92.5481 242.5,93.5C 240.879,95.4228 239.046,97.0895 237,98.5C 234.241,97.3459 231.575,97.6792 229,99.5C 225.991,97.7901 223.658,95.4568 222,92.5C 219.566,91.6777 217.066,91.3444 214.5,91.5C 214.833,93.5 215.167,95.5 215.5,97.5C 220.803,98.8257 226.136,100.159 231.5,101.5C 232.193,102.518 232.859,103.518 233.5,104.5C 227.911,101.601 221.911,99.9342 215.5,99.5C 213.833,97.5 212.167,95.5 210.5,93.5C 210.461,92.4168 210.127,91.4168 209.5,90.5C 212.765,88.9516 214.098,86.6183 213.5,83.5C 217.828,83.4977 222.161,83.4977 226.5,83.5C 230.825,78.3538 236.158,74.5204 242.5,72C 243.219,69.4438 244.886,68.2771 247.5,68.5 Z"/></g>
<g><path style="opacity:1" fill="#c6d9e7" d="M 357.5,68.5 C 357.5,76.5 357.5,84.5 357.5,92.5C 355.712,92.2148 354.045,92.5481 352.5,93.5C 350.879,95.4228 349.046,97.0895 347,98.5C 344.241,97.3459 341.575,97.6792 339,99.5C 335.991,97.7901 333.658,95.4568 332,92.5C 329.566,91.6777 327.066,91.3444 324.5,91.5C 324.833,93.5 325.167,95.5 325.5,97.5C 330.803,98.8257 336.136,100.159 341.5,101.5C 342.193,102.518 342.859,103.518 343.5,104.5C 337.911,101.601 331.911,99.9342 325.5,99.5C 323.833,97.5 322.167,95.5 320.5,93.5C 320.461,92.4168 320.127,91.4168 319.5,90.5C 322.765,88.9516 324.098,86.6183 323.5,83.5C 327.828,83.4977 332.161,83.4977 336.5,83.5C 340.825,78.3538 346.158,74.5204 352.5,72C 353.219,69.4438 354.886,68.2771 357.5,68.5 Z"/></g>
<g><path style="opacity:1" fill="#57729b" d="M 68.5,65.5 C 68.5,65.8333 68.5,66.1667 68.5,66.5C 67.8363,71.4725 67.5029,76.4725 67.5,81.5C 68.5,81.5 69.5,81.5 70.5,81.5C 70.3651,84.4175 71.0318,87.0842 72.5,89.5C 71.8333,89.5 71.5,89.8333 71.5,90.5C 68.0417,91.7349 65.0417,93.7349 62.5,96.5C 61.8333,95.8333 61.1667,95.1667 60.5,94.5C 59.8042,99.4888 57.1375,101.489 52.5,100.5C 52.9767,99.5224 53.6433,98.6891 54.5,98C 46.6226,96.03 42.6226,99.1967 42.5,107.5C 42.0269,108.906 41.0269,109.573 39.5,109.5C 40.3173,106.521 41.1506,103.521 42,100.5C 46.04,96.4579 50.3733,92.7912 55,89.5C 56.7811,85.6047 58.2811,81.6047 59.5,77.5C 62.7826,75.1345 64.2826,71.8012 64,67.5C 65.1096,65.9632 66.6096,65.2965 68.5,65.5 Z"/></g>
<g><path style="opacity:1" fill="#57729b" d="M 178.5,65.5 C 178.5,65.8333 178.5,66.1667 178.5,66.5C 177.836,71.4725 177.503,76.4725 177.5,81.5C 178.5,81.5 179.5,81.5 180.5,81.5C 180.365,84.4175 181.032,87.0842 182.5,89.5C 181.833,89.5 181.5,89.8333 181.5,90.5C 178.042,91.7349 175.042,93.7349 172.5,96.5C 171.833,95.8333 171.167,95.1667 170.5,94.5C 169.804,99.4888 167.138,101.489 162.5,100.5C 162.977,99.5224 163.643,98.6891 164.5,98C 156.623,96.03 152.623,99.1967 152.5,107.5C 152.027,108.906 151.027,109.573 149.5,109.5C 150.317,106.521 151.151,103.521 152,100.5C 156.04,96.4579 160.373,92.7912 165,89.5C 166.781,85.6047 168.281,81.6047 169.5,77.5C 172.783,75.1345 174.283,71.8012 174,67.5C 175.11,65.9632 176.61,65.2965 178.5,65.5 Z"/></g>
<g><path style="opacity:1" fill="#57729b" d="M 288.5,65.5 C 288.5,65.8333 288.5,66.1667 288.5,66.5C 287.836,71.4725 287.503,76.4725 287.5,81.5C 288.5,81.5 289.5,81.5 290.5,81.5C 290.365,84.4175 291.032,87.0842 292.5,89.5C 291.833,89.5 291.5,89.8333 291.5,90.5C 288.042,91.7349 285.042,93.7349 282.5,96.5C 281.833,95.8333 281.167,95.1667 280.5,94.5C 279.804,99.4888 277.138,101.489 272.5,100.5C 272.977,99.5224 273.643,98.6891 274.5,98C 266.623,96.03 262.623,99.1967 262.5,107.5C 262.027,108.906 261.027,109.573 259.5,109.5C 260.317,106.521 261.151,103.521 262,100.5C 266.04,96.4579 270.373,92.7912 275,89.5C 276.781,85.6047 278.281,81.6047 279.5,77.5C 282.783,75.1345 284.283,71.8012 284,67.5C 285.11,65.9632 286.61,65.2965 288.5,65.5 Z"/></g>
<g><path style="opacity:1" fill="#d7e2e4" d="M 137.5,92.5 C 137.5,99.1667 137.5,105.833 137.5,112.5C 132.596,110.266 127.929,107.599 123.5,104.5C 122.859,103.518 122.193,102.518 121.5,101.5C 116.136,100.159 110.803,98.8257 105.5,97.5C 105.167,95.5 104.833,93.5 104.5,91.5C 107.066,91.3444 109.566,91.6777 112,92.5C 113.658,95.4568 115.991,97.7901 119,99.5C 121.575,97.6792 124.241,97.3459 127,98.5C 129.046,97.0895 130.879,95.4228 132.5,93.5C 134.045,92.5481 135.712,92.2148 137.5,92.5 Z"/></g>
<g><path style="opacity:1" fill="#d7e2e4" d="M 247.5,92.5 C 247.5,99.1667 247.5,105.833 247.5,112.5C 242.596,110.266 237.929,107.599 233.5,104.5C 232.859,103.518 232.193,102.518 231.5,101.5C 226.136,100.159 220.803,98.8257 215.5,97.5C 215.167,95.5 214.833,93.5 214.5,91.5C 217.066,91.3444 219.566,91.6777 222,92.5C 223.658,95.4568 225.991,97.7901 229,99.5C 231.575,97.6792 234.241,97.3459 237,98.5C 239.046,97.0895 240.879,95.4228 242.5,93.5C 244.045,92.5481 245.712,92.2148 247.5,92.5 Z"/></g>
<g><path style="opacity:1" fill="#d7e2e4" d="M 357.5,92.5 C 357.5,99.1667 357.5,105.833 357.5,112.5C 352.596,110.266 347.929,107.599 343.5,104.5C 342.859,103.518 342.193,102.518 341.5,101.5C 336.136,100.159 330.803,98.8257 325.5,97.5C 325.167,95.5 324.833,93.5 324.5,91.5C 327.066,91.3444 329.566,91.6777 332,92.5C 333.658,95.4568 335.991,97.7901 339,99.5C 341.575,97.6792 344.241,97.3459 347,98.5C 349.046,97.0895 350.879,95.4228 352.5,93.5C 354.045,92.5481 355.712,92.2148 357.5,92.5 Z"/></g>
<g><path style="opacity:1" fill="#8c898e" d="M 91.5,105.5 C 89.5,106.5 87.5,107.5 85.5,108.5C 82.9783,108.872 80.9783,108.039 79.5,106C 81.5767,105.808 83.5767,105.308 85.5,104.5C 83.1186,102.119 80.7853,99.7853 78.5,97.5C 78.1667,97.5 77.8333,97.5 77.5,97.5C 76.9811,92.7577 76.9811,88.0911 77.5,83.5C 83.2763,83.7634 86.6097,86.7634 87.5,92.5C 86.9788,94.524 86.8122,96.524 87,98.5C 89.9415,99.9354 91.4415,102.269 91.5,105.5 Z"/></g>
<g><path style="opacity:1" fill="#8c898e" d="M 201.5,105.5 C 199.5,106.5 197.5,107.5 195.5,108.5C 192.978,108.872 190.978,108.039 189.5,106C 191.577,105.808 193.577,105.308 195.5,104.5C 193.119,102.119 190.785,99.7853 188.5,97.5C 188.167,97.5 187.833,97.5 187.5,97.5C 186.981,92.7577 186.981,88.0911 187.5,83.5C 193.276,83.7634 196.61,86.7634 197.5,92.5C 196.979,94.524 196.812,96.524 197,98.5C 199.941,99.9354 201.441,102.269 201.5,105.5 Z"/></g>
<g><path style="opacity:1" fill="#8c898e" d="M 311.5,105.5 C 309.5,106.5 307.5,107.5 305.5,108.5C 302.978,108.872 300.978,108.039 299.5,106C 301.577,105.808 303.577,105.308 305.5,104.5C 303.119,102.119 300.785,99.7853 298.5,97.5C 298.167,97.5 297.833,97.5 297.5,97.5C 296.981,92.7577 296.981,88.0911 297.5,83.5C 303.276,83.7634 306.61,86.7634 307.5,92.5C 306.979,94.524 306.812,96.524 307,98.5C 309.941,99.9354 311.441,102.269 311.5,105.5 Z"/></g>
<g><path style="opacity:1" fill="#425c85" d="M 71.5,90.5 C 70.538,96.3159 67.2047,99.9826 61.5,101.5C 59.5755,106.107 56.2421,108.773 51.5,109.5C 51.5,108.167 51.5,106.833 51.5,105.5C 48.4261,105.873 45.4261,106.539 42.5,107.5C 42.6226,99.1967 46.6226,96.03 54.5,98C 53.6433,98.6891 52.9767,99.5224 52.5,100.5C 57.1375,101.489 59.8042,99.4888 60.5,94.5C 61.1667,95.1667 61.8333,95.8333 62.5,96.5C 65.0417,93.7349 68.0417,91.7349 71.5,90.5 Z"/></g>
<g><path style="opacity:1" fill="#425c85" d="M 181.5,90.5 C 180.538,96.3159 177.205,99.9826 171.5,101.5C 169.575,106.107 166.242,108.773 161.5,109.5C 161.5,108.167 161.5,106.833 161.5,105.5C 158.426,105.873 155.426,106.539 152.5,107.5C 152.623,99.1967 156.623,96.03 164.5,98C 163.643,98.6891 162.977,99.5224 162.5,100.5C 167.138,101.489 169.804,99.4888 170.5,94.5C 171.167,95.1667 171.833,95.8333 172.5,96.5C 175.042,93.7349 178.042,91.7349 181.5,90.5 Z"/></g>
<g><path style="opacity:1" fill="#425c85" d="M 291.5,90.5 C 290.538,96.3159 287.205,99.9826 281.5,101.5C 279.575,106.107 276.242,108.773 271.5,109.5C 271.5,108.167 271.5,106.833 271.5,105.5C 268.426,105.873 265.426,106.539 262.5,107.5C 262.623,99.1967 266.623,96.03 274.5,98C 273.643,98.6891 272.977,99.5224 272.5,100.5C 277.138,101.489 279.804,99.4888 280.5,94.5C 281.167,95.1667 281.833,95.8333 282.5,96.5C 285.042,93.7349 288.042,91.7349 291.5,90.5 Z"/></g>
<g><path style="opacity:1" fill="#676878" d="M 78.5,97.5 C 80.7853,99.7853 83.1186,102.119 85.5,104.5C 83.5767,105.308 81.5767,105.808 79.5,106C 80.9783,108.039 82.9783,108.872 85.5,108.5C 87.631,109.314 89.9644,109.814 92.5,110C 93.056,110.383 93.3893,110.883 93.5,111.5C 90.5176,111.037 87.5176,110.704 84.5,110.5C 81.6569,110.005 79.3235,108.505 77.5,106C 75.8659,105.506 74.1992,105.34 72.5,105.5C 71.6595,99.8113 73.4928,98.478 78,101.5C 78.5,101.167 79,100.833 79.5,100.5C 78.8728,99.5832 78.5394,98.5832 78.5,97.5 Z"/></g>
<g><path style="opacity:1" fill="#676878" d="M 188.5,97.5 C 190.785,99.7853 193.119,102.119 195.5,104.5C 193.577,105.308 191.577,105.808 189.5,106C 190.978,108.039 192.978,108.872 195.5,108.5C 197.631,109.314 199.964,109.814 202.5,110C 203.056,110.383 203.389,110.883 203.5,111.5C 200.518,111.037 197.518,110.704 194.5,110.5C 191.657,110.005 189.324,108.505 187.5,106C 185.866,105.506 184.199,105.34 182.5,105.5C 181.659,99.8113 183.493,98.478 188,101.5C 188.5,101.167 189,100.833 189.5,100.5C 188.873,99.5832 188.539,98.5832 188.5,97.5 Z"/></g>
<g><path style="opacity:1" fill="#676878" d="M 298.5,97.5 C 300.785,99.7853 303.119,102.119 305.5,104.5C 303.577,105.308 301.577,105.808 299.5,106C 300.978,108.039 302.978,108.872 305.5,108.5C 307.631,109.314 309.964,109.814 312.5,110C 313.056,110.383 313.389,110.883 313.5,111.5C 310.518,111.037 307.518,110.704 304.5,110.5C 301.657,110.005 299.324,108.505 297.5,106C 295.866,105.506 294.199,105.34 292.5,105.5C 291.659,99.8113 293.493,98.478 298,101.5C 298.5,101.167 299,100.833 299.5,100.5C 298.873,99.5832 298.539,98.5832 298.5,97.5 Z"/></g>
<g><path style="opacity:1" fill="#2a3b5c" d="M 77.5,97.5 C 77.8333,97.5 78.1667,97.5 78.5,97.5C 78.5394,98.5832 78.8728,99.5832 79.5,100.5C 79,100.833 78.5,101.167 78,101.5C 73.4928,98.478 71.6595,99.8113 72.5,105.5C 71.5,105.5 70.5,105.5 69.5,105.5C 69.7852,103.712 69.4519,102.045 68.5,100.5C 66.7801,101.955 64.7801,102.788 62.5,103C 59.8223,108.731 55.489,111.398 49.5,111C 48.9535,110.075 48.2868,109.242 47.5,108.5C 44.4354,110.25 41.1021,111.25 37.5,111.5C 37.5,111.167 37.5,110.833 37.5,110.5C 38.4916,110.672 39.1583,110.338 39.5,109.5C 41.0269,109.573 42.0269,108.906 42.5,107.5C 45.4261,106.539 48.4261,105.873 51.5,105.5C 51.5,106.833 51.5,108.167 51.5,109.5C 56.2421,108.773 59.5755,106.107 61.5,101.5C 67.2047,99.9826 70.538,96.3159 71.5,90.5C 71.5,89.8333 71.8333,89.5 72.5,89.5C 73.397,88.4019 74.2303,88.4019 75,89.5C 75.4962,91.0349 75.3295,92.5349 74.5,94C 74.9778,95.6424 75.9778,96.8091 77.5,97.5 Z"/></g>
<g><path style="opacity:1" fill="#2a3b5c" d="M 187.5,97.5 C 187.833,97.5 188.167,97.5 188.5,97.5C 188.539,98.5832 188.873,99.5832 189.5,100.5C 189,100.833 188.5,101.167 188,101.5C 183.493,98.478 181.659,99.8113 182.5,105.5C 181.5,105.5 180.5,105.5 179.5,105.5C 179.785,103.712 179.452,102.045 178.5,100.5C 176.78,101.955 174.78,102.788 172.5,103C 169.822,108.731 165.489,111.398 159.5,111C 158.953,110.075 158.287,109.242 157.5,108.5C 154.435,110.25 151.102,111.25 147.5,111.5C 147.5,111.167 147.5,110.833 147.5,110.5C 148.492,110.672 149.158,110.338 149.5,109.5C 151.027,109.573 152.027,108.906 152.5,107.5C 155.426,106.539 158.426,105.873 161.5,105.5C 161.5,106.833 161.5,108.167 161.5,109.5C 166.242,108.773 169.575,106.107 171.5,101.5C 177.205,99.9826 180.538,96.3159 181.5,90.5C 181.5,89.8333 181.833,89.5 182.5,89.5C 183.397,88.4019 184.23,88.4019 185,89.5C 185.496,91.0349 185.33,92.5349 184.5,94C 184.978,95.6424 185.978,96.8091 187.5,97.5 Z"/></g>
<g><path style="opacity:1" fill="#2a3b5c" d="M 297.5,97.5 C 297.833,97.5 298.167,97.5 298.5,97.5C 298.539,98.5832 298.873,99.5832 299.5,100.5C 299,100.833 298.5,101.167 298,101.5C 293.493,98.478 291.659,99.8113 292.5,105.5C 291.5,105.5 290.5,105.5 289.5,105.5C 289.785,103.712 289.452,102.045 288.5,100.5C 286.78,101.955 284.78,102.788 282.5,103C 279.822,108.731 275.489,111.398 269.5,111C 268.953,110.075 268.287,109.242 267.5,108.5C 264.435,110.25 261.102,111.25 257.5,111.5C 257.5,111.167 257.5,110.833 257.5,110.5C 258.492,110.672 259.158,110.338 259.5,109.5C 261.027,109.573 262.027,108.906 262.5,107.5C 265.426,106.539 268.426,105.873 271.5,105.5C 271.5,106.833 271.5,108.167 271.5,109.5C 276.242,108.773 279.575,106.107 281.5,101.5C 287.205,99.9826 290.538,96.3159 291.5,90.5C 291.5,89.8333 291.833,89.5 292.5,89.5C 293.397,88.4019 294.23,88.4019 295,89.5C 295.496,91.0349 295.33,92.5349 294.5,94C 294.978,95.6424 295.978,96.8091 297.5,97.5 Z"/></g>
<g><path style="opacity:1" fill="#0a0d1b" d="M 72.5,105.5 C 74.1992,105.34 75.8659,105.506 77.5,106C 79.3235,108.505 81.6569,110.005 84.5,110.5C 90.324,112.664 95.6573,115.664 100.5,119.5C 92.3343,118.787 84.3343,117.287 76.5,115C 75.6634,113.989 75.33,112.822 75.5,111.5C 73.5165,111.383 71.8498,112.05 70.5,113.5C 69.8333,113.167 69.1667,112.833 68.5,112.5C 58.1471,115.027 47.8137,115.027 37.5,112.5C 37.5,112.167 37.5,111.833 37.5,111.5C 41.1021,111.25 44.4354,110.25 47.5,108.5C 48.2868,109.242 48.9535,110.075 49.5,111C 55.489,111.398 59.8223,108.731 62.5,103C 64.7801,102.788 66.7801,101.955 68.5,100.5C 69.4519,102.045 69.7852,103.712 69.5,105.5C 70.5,105.5 71.5,105.5 72.5,105.5 Z"/></g>
<g><path style="opacity:1" fill="#828ba4" d="M 105.5,99.5 C 111.911,99.9342 117.911,101.601 123.5,104.5C 127.929,107.599 132.596,110.266 137.5,112.5C 137.5,113.167 137.5,113.833 137.5,114.5C 123.842,113.727 110.176,113.06 96.5,112.5C 95.609,111.89 94.609,111.557 93.5,111.5C 93.3893,110.883 93.056,110.383 92.5,110C 89.9644,109.814 87.631,109.314 85.5,108.5C 87.5,107.5 89.5,106.5 91.5,105.5C 93.7345,105.62 95.9011,105.287 98,104.5C 102.21,107.005 106.71,107.839 111.5,107C 112.38,105.644 112.714,104.144 112.5,102.5C 109.509,102.834 107.176,101.834 105.5,99.5 Z"/></g>
<g><path style="opacity:1" fill="#0a0d1b" d="M 182.5,105.5 C 184.199,105.34 185.866,105.506 187.5,106C 189.324,108.505 191.657,110.005 194.5,110.5C 200.324,112.664 205.657,115.664 210.5,119.5C 202.334,118.787 194.334,117.287 186.5,115C 185.663,113.989 185.33,112.822 185.5,111.5C 183.516,111.383 181.85,112.05 180.5,113.5C 179.833,113.167 179.167,112.833 178.5,112.5C 168.147,115.027 157.814,115.027 147.5,112.5C 147.5,112.167 147.5,111.833 147.5,111.5C 151.102,111.25 154.435,110.25 157.5,108.5C 158.287,109.242 158.953,110.075 159.5,111C 165.489,111.398 169.822,108.731 172.5,103C 174.78,102.788 176.78,101.955 178.5,100.5C 179.452,102.045 179.785,103.712 179.5,105.5C 180.5,105.5 181.5,105.5 182.5,105.5 Z"/></g>
<g><path style="opacity:1" fill="#828ba4" d="M 215.5,99.5 C 221.911,99.9342 227.911,101.601 233.5,104.5C 237.929,107.599 242.596,110.266 247.5,112.5C 247.5,113.167 247.5,113.833 247.5,114.5C 233.842,113.727 220.176,113.06 206.5,112.5C 205.609,111.89 204.609,111.557 203.5,111.5C 203.389,110.883 203.056,110.383 202.5,110C 199.964,109.814 197.631,109.314 195.5,108.5C 197.5,107.5 199.5,106.5 201.5,105.5C 203.734,105.62 205.901,105.287 208,104.5C 212.21,107.005 216.71,107.839 221.5,107C 222.38,105.644 222.714,104.144 222.5,102.5C 219.509,102.834 217.176,101.834 215.5,99.5 Z"/></g>
<g><path style="opacity:1" fill="#0a0d1b" d="M 292.5,105.5 C 294.199,105.34 295.866,105.506 297.5,106C 299.324,108.505 301.657,110.005 304.5,110.5C 310.324,112.664 315.657,115.664 320.5,119.5C 312.334,118.787 304.334,117.287 296.5,115C 295.663,113.989 295.33,112.822 295.5,111.5C 293.516,111.383 291.85,112.05 290.5,113.5C 289.833,113.167 289.167,112.833 288.5,112.5C 278.147,115.027 267.814,115.027 257.5,112.5C 257.5,112.167 257.5,111.833 257.5,111.5C 261.102,111.25 264.435,110.25 267.5,108.5C 268.287,109.242 268.953,110.075 269.5,111C 275.489,111.398 279.822,108.731 282.5,103C 284.78,102.788 286.78,101.955 288.5,100.5C 289.452,102.045 289.785,103.712 289.5,105.5C 290.5,105.5 291.5,105.5 292.5,105.5 Z"/></g>
<g><path style="opacity:1" fill="#828ba4" d="M 325.5,99.5 C 331.911,99.9342 337.911,101.601 343.5,104.5C 347.929,107.599 352.596,110.266 357.5,112.5C 357.5,113.167 357.5,113.833 357.5,114.5C 343.842,113.727 330.176,113.06 316.5,112.5C 315.609,111.89 314.609,111.557 313.5,111.5C 313.389,110.883 313.056,110.383 312.5,110C 309.964,109.814 307.631,109.314 305.5,108.5C 307.5,107.5 309.5,106.5 311.5,105.5C 313.734,105.62 315.901,105.287 318,104.5C 322.21,107.005 326.71,107.839 331.5,107C 332.38,105.644 332.714,104.144 332.5,102.5C 329.509,102.834 327.176,101.834 325.5,99.5 Z"/></g>
<g><path style="opacity:1" fill="#2f3b54" d="M 84.5,110.5 C 87.5176,110.704 90.5176,111.037 93.5,111.5C 94.609,111.557 95.609,111.89 96.5,112.5C 107.107,115.88 118.107,118.713 129.5,121C 132.146,121.497 134.813,121.664 137.5,121.5C 137.5,121.833 137.5,122.167 137.5,122.5C 125.265,120.526 112.932,119.526 100.5,119.5C 95.6573,115.664 90.324,112.664 84.5,110.5 Z"/></g>
<g><path style="opacity:1" fill="#2f3b54" d="M 194.5,110.5 C 197.518,110.704 200.518,111.037 203.5,111.5C 204.609,111.557 205.609,111.89 206.5,112.5C 217.107,115.88 228.107,118.713 239.5,121C 242.146,121.497 244.813,121.664 247.5,121.5C 247.5,121.833 247.5,122.167 247.5,122.5C 235.265,120.526 222.932,119.526 210.5,119.5C 205.657,115.664 200.324,112.664 194.5,110.5 Z"/></g>
<g><path style="opacity:1" fill="#2f3b54" d="M 304.5,110.5 C 307.518,110.704 310.518,111.037 313.5,111.5C 314.609,111.557 315.609,111.89 316.5,112.5C 327.107,115.88 338.107,118.713 349.5,121C 352.146,121.497 354.813,121.664 357.5,121.5C 357.5,121.833 357.5,122.167 357.5,122.5C 345.265,120.526 332.932,119.526 320.5,119.5C 315.657,115.664 310.324,112.664 304.5,110.5 Z"/></g>
<g><path style="opacity:1" fill="#5a7090" d="M 96.5,112.5 C 110.176,113.06 123.842,113.727 137.5,114.5C 137.5,116.833 137.5,119.167 137.5,121.5C 134.813,121.664 132.146,121.497 129.5,121C 118.107,118.713 107.107,115.88 96.5,112.5 Z"/></g>
<g><path style="opacity:1" fill="#5a7090" d="M 206.5,112.5 C 220.176,113.06 233.842,113.727 247.5,114.5C 247.5,116.833 247.5,119.167 247.5,121.5C 244.813,121.664 242.146,121.497 239.5,121C 228.107,118.713 217.107,115.88 206.5,112.5 Z"/></g>
<g><path style="opacity:1" fill="#5a7090" d="M 316.5,112.5 C 330.176,113.06 343.842,113.727 357.5,114.5C 357.5,116.833 357.5,119.167 357.5,121.5C 354.813,121.664 352.146,121.497 349.5,121C 338.107,118.713 327.107,115.88 316.5,112.5 Z"/></g>
<g><path style="opacity:1" fill="#020305" d="M 100.5,119.5 C 112.932,119.526 125.265,120.526 137.5,122.5C 137.5,126.167 137.5,129.833 137.5,133.5C 104.167,133.5 70.8333,133.5 37.5,133.5C 37.5,126.5 37.5,119.5 37.5,112.5C 47.8137,115.027 58.1471,115.027 68.5,112.5C 69.1667,112.833 69.8333,113.167 70.5,113.5C 71.8498,112.05 73.5165,111.383 75.5,111.5C 75.33,112.822 75.6634,113.989 76.5,115C 84.3343,117.287 92.3343,118.787 100.5,119.5 Z"/></g>
<g><path style="opacity:1" fill="#020305" d="M 210.5,119.5 C 222.932,119.526 235.265,120.526 247.5,122.5C 247.5,126.167 247.5,129.833 247.5,133.5C 214.167,133.5 180.833,133.5 147.5,133.5C 147.5,126.5 147.5,119.5 147.5,112.5C 157.814,115.027 168.147,115.027 178.5,112.5C 179.167,112.833 179.833,113.167 180.5,113.5C 181.85,112.05 183.516,111.383 185.5,111.5C 185.33,112.822 185.663,113.989 186.5,115C 194.334,117.287 202.334,118.787 210.5,119.5 Z"/></g>
<g><path style="opacity:1" fill="#020305" d="M 320.5,119.5 C 332.932,119.526 345.265,120.526 357.5,122.5C 357.5,126.167 357.5,129.833 357.5,133.5C 324.167,133.5 290.833,133.5 257.5,133.5C 257.5,126.5 257.5,119.5 257.5,112.5C 267.814,115.027 278.147,115.027 288.5,112.5C 289.167,112.833 289.833,113.167 290.5,113.5C 291.85,112.05 293.516,111.383 295.5,111.5C 295.33,112.822 295.663,113.989 296.5,115C 304.334,117.287 312.334,118.787 320.5,119.5 Z"/></g>
<g><path style="opacity:1" fill="#151515" d="M 74.5,148.5 C 73.1667,151.5 73.1667,154.5 74.5,157.5C 74.5143,158.612 73.5143,158.779 71.5,158C 72.8333,154.667 72.8333,151.333 71.5,148C 74.2272,147.182 76.8938,147.348 79.5,148.5C 78.1125,148.807 76.4458,148.807 74.5,148.5 Z"/></g>
<g><path style="opacity:1" fill="#676767" d="M 99.5,148.5 C 99.56,147.957 99.8933,147.624 100.5,147.5C 101.487,150.768 101.82,154.102 101.5,157.5C 100.833,154.5 100.167,151.5 99.5,148.5 Z"/></g>
<g><path style="opacity:1" fill="#151515" d="M 184.5,148.5 C 183.167,151.5 183.167,154.5 184.5,157.5C 184.514,158.612 183.514,158.779 181.5,158C 182.833,154.667 182.833,151.333 181.5,148C 184.227,147.182 186.894,147.348 189.5,148.5C 188.113,148.807 186.446,148.807 184.5,148.5 Z"/></g>
<g><path style="opacity:1" fill="#151515" d="M 294.5,148.5 C 293.167,151.5 293.167,154.5 294.5,157.5C 294.514,158.612 293.514,158.779 291.5,158C 292.833,154.667 292.833,151.333 291.5,148C 294.227,147.182 296.894,147.348 299.5,148.5C 298.113,148.807 296.446,148.807 294.5,148.5 Z"/></g>
<g><path style="opacity:1" fill="#181818" d="M 321.5,150.5 C 320.942,149.21 319.942,148.377 318.5,148C 319.5,147.333 320.5,147.333 321.5,148C 322.774,148.977 322.774,149.811 321.5,150.5 Z"/></g>
<g><path style="opacity:1" fill="#232323" d="M 209.5,155.5 C 209.92,153.906 210.586,152.406 211.5,151C 211.18,149.347 210.18,148.347 208.5,148C 211.23,147.058 212.563,148.058 212.5,151C 212.478,153.183 211.478,154.683 209.5,155.5 Z"/></g>
<g><path style="opacity:1" fill="#0f0f0f" d="M 99.5,148.5 C 100.167,151.5 100.833,154.5 101.5,157.5C 100.749,158.573 99.7494,158.74 98.5,158C 99.4505,154.943 99.7839,151.777 99.5,148.5 Z"/></g>
<g><path style="opacity:1" fill="#131313" d="M 81.5,150.5 C 82.21,152.893 82.8767,155.393 83.5,158C 82.5,158.667 81.5,158.667 80.5,158C 81.435,155.619 81.7683,153.119 81.5,150.5 Z"/></g>
<g><path style="opacity:1" fill="#131313" d="M 191.5,150.5 C 192.21,152.893 192.877,155.393 193.5,158C 192.5,158.667 191.5,158.667 190.5,158C 191.435,155.619 191.768,153.119 191.5,150.5 Z"/></g>
<g><path style="opacity:1" fill="#131313" d="M 301.5,150.5 C 302.21,152.893 302.877,155.393 303.5,158C 302.5,158.667 301.5,158.667 300.5,158C 301.435,155.619 301.768,153.119 301.5,150.5 Z"/></g>
<g><path style="opacity:1" fill="#2e2e2e" d="M 321.5,150.5 C 322.108,151.8 322.775,153.133 323.5,154.5C 323.444,155.737 322.944,156.737 322,157.5C 321.837,155.324 321.004,153.491 319.5,152C 320.044,151.283 320.711,150.783 321.5,150.5 Z"/></g>
<g><path style="opacity:1" fill="#626262" d="M 74.5,148.5 C 74.5,149.5 74.5,150.5 74.5,151.5C 75.8221,151.67 76.9887,151.337 78,150.5C 78.6667,151.833 78.6667,153.167 78,154.5C 76.9887,153.663 75.8221,153.33 74.5,153.5C 74.5,154.833 74.5,156.167 74.5,157.5C 73.1667,154.5 73.1667,151.5 74.5,148.5 Z"/></g>
<g><path style="opacity:1" fill="#626262" d="M 184.5,148.5 C 184.5,149.5 184.5,150.5 184.5,151.5C 185.822,151.67 186.989,151.337 188,150.5C 188.667,151.833 188.667,153.167 188,154.5C 186.989,153.663 185.822,153.33 184.5,153.5C 184.5,154.833 184.5,156.167 184.5,157.5C 183.167,154.5 183.167,151.5 184.5,148.5 Z"/></g>
<g><path style="opacity:1" fill="#626262" d="M 294.5,148.5 C 294.5,149.5 294.5,150.5 294.5,151.5C 295.822,151.67 296.989,151.337 298,150.5C 298.667,151.833 298.667,153.167 298,154.5C 296.989,153.663 295.822,153.33 294.5,153.5C 294.5,154.833 294.5,156.167 294.5,157.5C 293.167,154.5 293.167,151.5 294.5,148.5 Z"/></g>
<g><path style="opacity:1" fill="#333333" d="M 209.5,155.5 C 210.718,156.161 212.051,156.828 213.5,157.5C 211.235,158.647 208.902,158.814 206.5,158C 207.373,156.955 208.373,156.122 209.5,155.5 Z"/></g>
<g><path style="opacity:1" fill="#434343" d="M 90.5,160.5 C 88.6365,161.793 86.6365,161.793 84.5,160.5C 85.2435,157.557 85.7435,154.557 86,151.5C 91.2266,149.755 92.3933,151.088 89.5,155.5C 89.7948,154.174 89.2948,152.841 88,151.5C 87.7489,153.433 87.2489,155.266 86.5,157C 88.1341,157.494 89.8008,157.66 91.5,157.5C 91.7373,158.791 91.404,159.791 90.5,160.5 Z"/></g>
<g><path style="opacity:1" fill="#ececec" d="M 90.5,160.5 C 89.0222,160.762 87.6888,160.429 86.5,159.5C 87.1667,159.167 87.8333,158.833 88.5,158.5C 89.7133,158.747 90.38,159.414 90.5,160.5 Z"/></g>
<g><path style="opacity:1" fill="#434343" d="M 200.5,160.5 C 198.636,161.793 196.636,161.793 194.5,160.5C 195.244,157.557 195.744,154.557 196,151.5C 201.227,149.755 202.393,151.088 199.5,155.5C 199.795,154.174 199.295,152.841 198,151.5C 197.749,153.433 197.249,155.266 196.5,157C 198.134,157.494 199.801,157.66 201.5,157.5C 201.737,158.791 201.404,159.791 200.5,160.5 Z"/></g>
<g><path style="opacity:1" fill="#ececec" d="M 200.5,160.5 C 199.022,160.762 197.689,160.429 196.5,159.5C 197.167,159.167 197.833,158.833 198.5,158.5C 199.713,158.747 200.38,159.414 200.5,160.5 Z"/></g>
<g><path style="opacity:1" fill="#434343" d="M 310.5,160.5 C 308.636,161.793 306.636,161.793 304.5,160.5C 305.244,157.557 305.744,154.557 306,151.5C 311.227,149.755 312.393,151.088 309.5,155.5C 309.795,154.174 309.295,152.841 308,151.5C 307.749,153.433 307.249,155.266 306.5,157C 308.134,157.494 309.801,157.66 311.5,157.5C 311.737,158.791 311.404,159.791 310.5,160.5 Z"/></g>
<g><path style="opacity:1" fill="#ececec" d="M 310.5,160.5 C 309.022,160.762 307.689,160.429 306.5,159.5C 307.167,159.167 307.833,158.833 308.5,158.5C 309.713,158.747 310.38,159.414 310.5,160.5 Z"/></g>
<g><path style="opacity:1" fill="#a1b6e6" d="M 137.5,175.5 C 137.5,178.167 137.5,180.833 137.5,183.5C 131.327,183.09 126.161,185.09 122,189.5C 121.282,188.549 120.449,188.383 119.5,189C 118.284,190.74 116.618,191.74 114.5,192C 112.58,196.256 109.58,199.589 105.5,202C 100.015,203.839 94.3481,205.172 88.5,206C 86.269,208.748 85.269,211.915 85.5,215.5C 84.5041,215.414 83.6708,215.748 83,216.5C 82.7216,215.584 82.2216,214.918 81.5,214.5C 78.5266,213.458 76.1932,211.625 74.5,209C 72.5115,208.062 70.5115,207.228 68.5,206.5C 68.5,206.167 68.5,205.833 68.5,205.5C 73.37,204.196 78.37,204.196 83.5,205.5C 85.6932,203.279 88.3599,201.946 91.5,201.5C 93.316,199.183 95.316,197.016 97.5,195C 105.532,192.237 112.699,188.07 119,182.5C 123.867,180.982 128.367,178.816 132.5,176C 134.134,175.506 135.801,175.34 137.5,175.5 Z"/></g>
<g><path style="opacity:1" fill="#a1b6e6" d="M 247.5,175.5 C 247.5,178.167 247.5,180.833 247.5,183.5C 241.327,183.09 236.161,185.09 232,189.5C 231.282,188.549 230.449,188.383 229.5,189C 228.284,190.74 226.618,191.74 224.5,192C 222.58,196.256 219.58,199.589 215.5,202C 210.015,203.839 204.348,205.172 198.5,206C 196.269,208.748 195.269,211.915 195.5,215.5C 194.504,215.414 193.671,215.748 193,216.5C 192.722,215.584 192.222,214.918 191.5,214.5C 188.527,213.458 186.193,211.625 184.5,209C 182.512,208.062 180.512,207.228 178.5,206.5C 178.5,206.167 178.5,205.833 178.5,205.5C 183.37,204.196 188.37,204.196 193.5,205.5C 195.693,203.279 198.36,201.946 201.5,201.5C 203.316,199.183 205.316,197.016 207.5,195C 215.532,192.237 222.699,188.07 229,182.5C 233.867,180.982 238.367,178.816 242.5,176C 244.134,175.506 245.801,175.34 247.5,175.5 Z"/></g>
<g><path style="opacity:1" fill="#a1b6e6" d="M 357.5,175.5 C 357.5,178.167 357.5,180.833 357.5,183.5C 351.327,183.09 346.161,185.09 342,189.5C 341.282,188.549 340.449,188.383 339.5,189C 338.284,190.74 336.618,191.74 334.5,192C 332.58,196.256 329.58,199.589 325.5,202C 320.015,203.839 314.348,205.172 308.5,206C 306.269,208.748 305.269,211.915 305.5,215.5C 304.504,215.414 303.671,215.748 303,216.5C 302.722,215.584 302.222,214.918 301.5,214.5C 298.527,213.458 296.193,211.625 294.5,209C 292.512,208.062 290.512,207.228 288.5,206.5C 288.5,206.167 288.5,205.833 288.5,205.5C 293.37,204.196 298.37,204.196 303.5,205.5C 305.693,203.279 308.36,201.946 311.5,201.5C 313.316,199.183 315.316,197.016 317.5,195C 325.532,192.237 332.699,188.07 339,182.5C 343.867,180.982 348.367,178.816 352.5,176C 354.134,175.506 355.801,175.34 357.5,175.5 Z"/></g>
<g><path style="opacity:1" fill="#89a3de" d="M 99.5,173.5 C 99.1412,175.371 98.1412,176.871 96.5,178C 92.4935,181.005 88.1602,183.505 83.5,185.5C 80.5091,188.28 77.3425,190.947 74,193.5C 73.1268,193.265 72.2935,192.931 71.5,192.5C 65.2433,195.949 58.9099,199.116 52.5,202C 51,203.5 49.5,205 48,206.5C 44.7121,206.342 41.2121,206.342 37.5,206.5C 37.5,195.5 37.5,184.5 37.5,173.5C 58.1667,173.5 78.8333,173.5 99.5,173.5 Z"/></g>
<g><path style="opacity:1" fill="#89a3de" d="M 209.5,173.5 C 209.141,175.371 208.141,176.871 206.5,178C 202.494,181.005 198.16,183.505 193.5,185.5C 190.509,188.28 187.342,190.947 184,193.5C 183.127,193.265 182.293,192.931 181.5,192.5C 175.243,195.949 168.91,199.116 162.5,202C 161,203.5 159.5,205 158,206.5C 154.712,206.342 151.212,206.342 147.5,206.5C 147.5,195.5 147.5,184.5 147.5,173.5C 168.167,173.5 188.833,173.5 209.5,173.5 Z"/></g>
<g><path style="opacity:1" fill="#89a3de" d="M 319.5,173.5 C 319.141,175.371 318.141,176.871 316.5,178C 312.494,181.005 308.16,183.505 303.5,185.5C 300.509,188.28 297.342,190.947 294,193.5C 293.127,193.265 292.293,192.931 291.5,192.5C 285.243,195.949 278.91,199.116 272.5,202C 271,203.5 269.5,205 268,206.5C 264.712,206.342 261.212,206.342 257.5,206.5C 257.5,195.5 257.5,184.5 257.5,173.5C 278.167,173.5 298.833,173.5 319.5,173.5 Z"/></g>
<g><path style="opacity:1" fill="#97afe5" d="M 99.5,173.5 C 112.544,172.853 125.211,173.52 137.5,175.5C 135.801,175.34 134.134,175.506 132.5,176C 128.367,178.816 123.867,180.982 119,182.5C 112.699,188.07 105.532,192.237 97.5,195C 95.316,197.016 93.316,199.183 91.5,201.5C 88.3599,201.946 85.6932,203.279 83.5,205.5C 78.37,204.196 73.37,204.196 68.5,205.5C 66.6096,205.297 65.1096,205.963 64,207.5C 64.2826,211.801 62.7826,215.134 59.5,217.5C 58.2811,221.605 56.7811,225.605 55,229.5C 50.3733,232.791 46.04,236.458 42,240.5C 41.1506,243.521 40.3173,246.521 39.5,249.5C 39.1583,250.338 38.4916,250.672 37.5,250.5C 37.5,235.833 37.5,221.167 37.5,206.5C 41.2121,206.342 44.7121,206.342 48,206.5C 49.5,205 51,203.5 52.5,202C 58.9099,199.116 65.2433,195.949 71.5,192.5C 72.2935,192.931 73.1268,193.265 74,193.5C 77.3425,190.947 80.5091,188.28 83.5,185.5C 88.1602,183.505 92.4935,181.005 96.5,178C 98.1412,176.871 99.1412,175.371 99.5,173.5 Z"/></g>
<g><path style="opacity:1" fill="#a8bfe8" d="M 137.5,183.5 C 137.5,186.833 137.5,190.167 137.5,193.5C 133.673,194.342 130.006,194.342 126.5,193.5C 124.141,196.062 121.474,198.228 118.5,200C 119.328,200.915 120.328,201.581 121.5,202C 117.59,206.248 112.924,207.415 107.5,205.5C 106.808,206.025 106.308,206.692 106,207.5C 105.667,207.167 105.333,206.833 105,206.5C 104.02,207.981 102.853,209.315 101.5,210.5C 102.665,211.584 103.998,212.417 105.5,213C 102.891,213.943 100.891,215.61 99.5,218C 98.2068,218.49 96.8734,218.657 95.5,218.5C 95.9827,209.782 93.1494,209.115 87,216.5C 86.6174,215.944 86.1174,215.611 85.5,215.5C 85.269,211.915 86.269,208.748 88.5,206C 94.3481,205.172 100.015,203.839 105.5,202C 109.58,199.589 112.58,196.256 114.5,192C 116.618,191.74 118.284,190.74 119.5,189C 120.449,188.383 121.282,188.549 122,189.5C 126.161,185.09 131.327,183.09 137.5,183.5 Z"/></g>
<g><path style="opacity:1" fill="#97afe5" d="M 209.5,173.5 C 222.544,172.853 235.211,173.52 247.5,175.5C 245.801,175.34 244.134,175.506 242.5,176C 238.367,178.816 233.867,180.982 229,182.5C 222.699,188.07 215.532,192.237 207.5,195C 205.316,197.016 203.316,199.183 201.5,201.5C 198.36,201.946 195.693,203.279 193.5,205.5C 188.37,204.196 183.37,204.196 178.5,205.5C 176.61,205.297 175.11,205.963 174,207.5C 174.283,211.801 172.783,215.134 169.5,217.5C 168.281,221.605 166.781,225.605 165,229.5C 160.373,232.791 156.04,236.458 152,240.5C 151.151,243.521 150.317,246.521 149.5,249.5C 149.158,250.338 148.492,250.672 147.5,250.5C 147.5,235.833 147.5,221.167 147.5,206.5C 151.212,206.342 154.712,206.342 158,206.5C 159.5,205 161,203.5 162.5,202C 168.91,199.116 175.243,195.949 181.5,192.5C 182.293,192.931 183.127,193.265 184,193.5C 187.342,190.947 190.509,188.28 193.5,185.5C 198.16,183.505 202.494,181.005 206.5,178C 208.141,176.871 209.141,175.371 209.5,173.5 Z"/></g>
<g><path style="opacity:1" fill="#a8bfe8" d="M 247.5,183.5 C 247.5,186.833 247.5,190.167 247.5,193.5C 243.673,194.342 240.006,194.342 236.5,193.5C 234.141,196.062 231.474,198.228 228.5,200C 229.328,200.915 230.328,201.581 231.5,202C 227.59,206.248 222.924,207.415 217.5,205.5C 216.808,206.025 216.308,206.692 216,207.5C 215.667,207.167 215.333,206.833 215,206.5C 214.02,207.981 212.853,209.315 211.5,210.5C 212.665,211.584 213.998,212.417 215.5,213C 212.891,213.943 210.891,215.61 209.5,218C 208.207,218.49 206.873,218.657 205.5,218.5C 205.983,209.782 203.149,209.115 197,216.5C 196.617,215.944 196.117,215.611 195.5,215.5C 195.269,211.915 196.269,208.748 198.5,206C 204.348,205.172 210.015,203.839 215.5,202C 219.58,199.589 222.58,196.256 224.5,192C 226.618,191.74 228.284,190.74 229.5,189C 230.449,188.383 231.282,188.549 232,189.5C 236.161,185.09 241.327,183.09 247.5,183.5 Z"/></g>
<g><path style="opacity:1" fill="#97afe5" d="M 319.5,173.5 C 332.544,172.853 345.211,173.52 357.5,175.5C 355.801,175.34 354.134,175.506 352.5,176C 348.367,178.816 343.867,180.982 339,182.5C 332.699,188.07 325.532,192.237 317.5,195C 315.316,197.016 313.316,199.183 311.5,201.5C 308.36,201.946 305.693,203.279 303.5,205.5C 298.37,204.196 293.37,204.196 288.5,205.5C 286.61,205.297 285.11,205.963 284,207.5C 284.283,211.801 282.783,215.134 279.5,217.5C 278.281,221.605 276.781,225.605 275,229.5C 270.373,232.791 266.04,236.458 262,240.5C 261.151,243.521 260.317,246.521 259.5,249.5C 259.158,250.338 258.492,250.672 257.5,250.5C 257.5,235.833 257.5,221.167 257.5,206.5C 261.212,206.342 264.712,206.342 268,206.5C 269.5,205 271,203.5 272.5,202C 278.91,199.116 285.243,195.949 291.5,192.5C 292.293,192.931 293.127,193.265 294,193.5C 297.342,190.947 300.509,188.28 303.5,185.5C 308.16,183.505 312.494,181.005 316.5,178C 318.141,176.871 319.141,175.371 319.5,173.5 Z"/></g>
<g><path style="opacity:1" fill="#a8bfe8" d="M 357.5,183.5 C 357.5,186.833 357.5,190.167 357.5,193.5C 353.673,194.342 350.006,194.342 346.5,193.5C 344.141,196.062 341.474,198.228 338.5,200C 339.328,200.915 340.328,201.581 341.5,202C 337.59,206.248 332.924,207.415 327.5,205.5C 326.808,206.025 326.308,206.692 326,207.5C 325.667,207.167 325.333,206.833 325,206.5C 324.02,207.981 322.853,209.315 321.5,210.5C 322.665,211.584 323.998,212.417 325.5,213C 322.891,213.943 320.891,215.61 319.5,218C 318.207,218.49 316.873,218.657 315.5,218.5C 315.983,209.782 313.149,209.115 307,216.5C 306.617,215.944 306.117,215.611 305.5,215.5C 305.269,211.915 306.269,208.748 308.5,206C 314.348,205.172 320.015,203.839 325.5,202C 329.58,199.589 332.58,196.256 334.5,192C 336.618,191.74 338.284,190.74 339.5,189C 340.449,188.383 341.282,188.549 342,189.5C 346.161,185.09 351.327,183.09 357.5,183.5 Z"/></g>
<g><path style="opacity:1" fill="#b0c9e7" d="M 137.5,193.5 C 137.5,198.5 137.5,203.5 137.5,208.5C 134.886,208.277 133.219,209.444 132.5,212C 126.158,214.52 120.825,218.354 116.5,223.5C 112.161,223.498 107.828,223.498 103.5,223.5C 104.098,226.618 102.765,228.952 99.5,230.5C 100.127,231.417 100.461,232.417 100.5,233.5C 95.6825,232.363 91.3491,230.196 87.5,227C 87.3379,222.905 85.5046,219.738 82,217.5C 81.5172,216.552 81.3505,215.552 81.5,214.5C 82.2216,214.918 82.7216,215.584 83,216.5C 83.6708,215.748 84.5041,215.414 85.5,215.5C 86.1174,215.611 86.6174,215.944 87,216.5C 93.1494,209.115 95.9827,209.782 95.5,218.5C 96.8734,218.657 98.2068,218.49 99.5,218C 100.891,215.61 102.891,213.943 105.5,213C 103.998,212.417 102.665,211.584 101.5,210.5C 102.853,209.315 104.02,207.981 105,206.5C 105.333,206.833 105.667,207.167 106,207.5C 106.308,206.692 106.808,206.025 107.5,205.5C 112.924,207.415 117.59,206.248 121.5,202C 120.328,201.581 119.328,200.915 118.5,200C 121.474,198.228 124.141,196.062 126.5,193.5C 130.006,194.342 133.673,194.342 137.5,193.5 Z"/></g>
<g><path style="opacity:1" fill="#b0c9e7" d="M 247.5,193.5 C 247.5,198.5 247.5,203.5 247.5,208.5C 244.886,208.277 243.219,209.444 242.5,212C 236.158,214.52 230.825,218.354 226.5,223.5C 222.161,223.498 217.828,223.498 213.5,223.5C 214.098,226.618 212.765,228.952 209.5,230.5C 210.127,231.417 210.461,232.417 210.5,233.5C 205.682,232.363 201.349,230.196 197.5,227C 197.338,222.905 195.505,219.738 192,217.5C 191.517,216.552 191.351,215.552 191.5,214.5C 192.222,214.918 192.722,215.584 193,216.5C 193.671,215.748 194.504,215.414 195.5,215.5C 196.117,215.611 196.617,215.944 197,216.5C 203.149,209.115 205.983,209.782 205.5,218.5C 206.873,218.657 208.207,218.49 209.5,218C 210.891,215.61 212.891,213.943 215.5,213C 213.998,212.417 212.665,211.584 211.5,210.5C 212.853,209.315 214.02,207.981 215,206.5C 215.333,206.833 215.667,207.167 216,207.5C 216.308,206.692 216.808,206.025 217.5,205.5C 222.924,207.415 227.59,206.248 231.5,202C 230.328,201.581 229.328,200.915 228.5,200C 231.474,198.228 234.141,196.062 236.5,193.5C 240.006,194.342 243.673,194.342 247.5,193.5 Z"/></g>
<g><path style="opacity:1" fill="#b0c9e7" d="M 357.5,193.5 C 357.5,198.5 357.5,203.5 357.5,208.5C 354.886,208.277 353.219,209.444 352.5,212C 346.158,214.52 340.825,218.354 336.5,223.5C 332.161,223.498 327.828,223.498 323.5,223.5C 324.098,226.618 322.765,228.952 319.5,230.5C 320.127,231.417 320.461,232.417 320.5,233.5C 315.682,232.363 311.349,230.196 307.5,227C 307.338,222.905 305.505,219.738 302,217.5C 301.517,216.552 301.351,215.552 301.5,214.5C 302.222,214.918 302.722,215.584 303,216.5C 303.671,215.748 304.504,215.414 305.5,215.5C 306.117,215.611 306.617,215.944 307,216.5C 313.149,209.115 315.983,209.782 315.5,218.5C 316.873,218.657 318.207,218.49 319.5,218C 320.891,215.61 322.891,213.943 325.5,213C 323.998,212.417 322.665,211.584 321.5,210.5C 322.853,209.315 324.02,207.981 325,206.5C 325.333,206.833 325.667,207.167 326,207.5C 326.308,206.692 326.808,206.025 327.5,205.5C 332.924,207.415 337.59,206.248 341.5,202C 340.328,201.581 339.328,200.915 338.5,200C 341.474,198.228 344.141,196.062 346.5,193.5C 350.006,194.342 353.673,194.342 357.5,193.5 Z"/></g>
<g><path style="opacity:1" fill="#656b81" d="M 68.5,206.5 C 70.5115,207.228 72.5115,208.062 74.5,209C 76.1932,211.625 78.5266,213.458 81.5,214.5C 81.3505,215.552 81.5172,216.552 82,217.5C 85.5046,219.738 87.3379,222.905 87.5,227C 91.3491,230.196 95.6825,232.363 100.5,233.5C 102.167,235.5 103.833,237.5 105.5,239.5C 107.176,241.834 109.509,242.834 112.5,242.5C 112.714,244.144 112.38,245.644 111.5,247C 106.71,247.839 102.21,247.005 98,244.5C 95.9011,245.287 93.7345,245.62 91.5,245.5C 91.4415,242.269 89.9415,239.935 87,238.5C 86.8122,236.524 86.9788,234.524 87.5,232.5C 86.6097,226.763 83.2763,223.763 77.5,223.5C 76.9811,228.091 76.9811,232.758 77.5,237.5C 75.9778,236.809 74.9778,235.642 74.5,234C 75.3295,232.535 75.4962,231.035 75,229.5C 74.2303,228.402 73.397,228.402 72.5,229.5C 71.0318,227.084 70.3651,224.417 70.5,221.5C 69.5,221.5 68.5,221.5 67.5,221.5C 67.5029,216.473 67.8363,211.473 68.5,206.5 Z"/></g>
<g><path style="opacity:1" fill="#656b81" d="M 178.5,206.5 C 180.512,207.228 182.512,208.062 184.5,209C 186.193,211.625 188.527,213.458 191.5,214.5C 191.351,215.552 191.517,216.552 192,217.5C 195.505,219.738 197.338,222.905 197.5,227C 201.349,230.196 205.682,232.363 210.5,233.5C 212.167,235.5 213.833,237.5 215.5,239.5C 217.176,241.834 219.509,242.834 222.5,242.5C 222.714,244.144 222.38,245.644 221.5,247C 216.71,247.839 212.21,247.005 208,244.5C 205.901,245.287 203.734,245.62 201.5,245.5C 201.441,242.269 199.941,239.935 197,238.5C 196.812,236.524 196.979,234.524 197.5,232.5C 196.61,226.763 193.276,223.763 187.5,223.5C 186.981,228.091 186.981,232.758 187.5,237.5C 185.978,236.809 184.978,235.642 184.5,234C 185.33,232.535 185.496,231.035 185,229.5C 184.23,228.402 183.397,228.402 182.5,229.5C 181.032,227.084 180.365,224.417 180.5,221.5C 179.5,221.5 178.5,221.5 177.5,221.5C 177.503,216.473 177.836,211.473 178.5,206.5 Z"/></g>
<g><path style="opacity:1" fill="#656b81" d="M 288.5,206.5 C 290.512,207.228 292.512,208.062 294.5,209C 296.193,211.625 298.527,213.458 301.5,214.5C 301.351,215.552 301.517,216.552 302,217.5C 305.505,219.738 307.338,222.905 307.5,227C 311.349,230.196 315.682,232.363 320.5,233.5C 322.167,235.5 323.833,237.5 325.5,239.5C 327.176,241.834 329.509,242.834 332.5,242.5C 332.714,244.144 332.38,245.644 331.5,247C 326.71,247.839 322.21,247.005 318,244.5C 315.901,245.287 313.734,245.62 311.5,245.5C 311.441,242.269 309.941,239.935 307,238.5C 306.812,236.524 306.979,234.524 307.5,232.5C 306.61,226.763 303.276,223.763 297.5,223.5C 296.981,228.091 296.981,232.758 297.5,237.5C 295.978,236.809 294.978,235.642 294.5,234C 295.33,232.535 295.496,231.035 295,229.5C 294.23,228.402 293.397,228.402 292.5,229.5C 291.032,227.084 290.365,224.417 290.5,221.5C 289.5,221.5 288.5,221.5 287.5,221.5C 287.503,216.473 287.836,211.473 288.5,206.5 Z"/></g>
<g><path style="opacity:1" fill="#c6d9e7" d="M 137.5,208.5 C 137.5,216.5 137.5,224.5 137.5,232.5C 135.712,232.215 134.045,232.548 132.5,233.5C 130.879,235.423 129.046,237.089 127,238.5C 124.241,237.346 121.575,237.679 119,239.5C 115.991,237.79 113.658,235.457 112,232.5C 109.566,231.678 107.066,231.344 104.5,231.5C 104.833,233.5 105.167,235.5 105.5,237.5C 110.803,238.826 116.136,240.159 121.5,241.5C 122.193,242.518 122.859,243.518 123.5,244.5C 117.911,241.601 111.911,239.934 105.5,239.5C 103.833,237.5 102.167,235.5 100.5,233.5C 100.461,232.417 100.127,231.417 99.5,230.5C 102.765,228.952 104.098,226.618 103.5,223.5C 107.828,223.498 112.161,223.498 116.5,223.5C 120.825,218.354 126.158,214.52 132.5,212C 133.219,209.444 134.886,208.277 137.5,208.5 Z"/></g>
<g><path style="opacity:1" fill="#c6d9e7" d="M 247.5,208.5 C 247.5,216.5 247.5,224.5 247.5,232.5C 245.712,232.215 244.045,232.548 242.5,233.5C 240.879,235.423 239.046,237.089 237,238.5C 234.241,237.346 231.575,237.679 229,239.5C 225.991,237.79 223.658,235.457 222,232.5C 219.566,231.678 217.066,231.344 214.5,231.5C 214.833,233.5 215.167,235.5 215.5,237.5C 220.803,238.826 226.136,240.159 231.5,241.5C 232.193,242.518 232.859,243.518 233.5,244.5C 227.911,241.601 221.911,239.934 215.5,239.5C 213.833,237.5 212.167,235.5 210.5,233.5C 210.461,232.417 210.127,231.417 209.5,230.5C 212.765,228.952 214.098,226.618 213.5,223.5C 217.828,223.498 222.161,223.498 226.5,223.5C 230.825,218.354 236.158,214.52 242.5,212C 243.219,209.444 244.886,208.277 247.5,208.5 Z"/></g>
<g><path style="opacity:1" fill="#c6d9e7" d="M 357.5,208.5 C 357.5,216.5 357.5,224.5 357.5,232.5C 355.712,232.215 354.045,232.548 352.5,233.5C 350.879,235.423 349.046,237.089 347,238.5C 344.241,237.346 341.575,237.679 339,239.5C 335.991,237.79 333.658,235.457 332,232.5C 329.566,231.678 327.066,231.344 324.5,231.5C 324.833,233.5 325.167,235.5 325.5,237.5C 330.803,238.826 336.136,240.159 341.5,241.5C 342.193,242.518 342.859,243.518 343.5,244.5C 337.911,241.601 331.911,239.934 325.5,239.5C 323.833,237.5 322.167,235.5 320.5,233.5C 320.461,232.417 320.127,231.417 319.5,230.5C 322.765,228.952 324.098,226.618 323.5,223.5C 327.828,223.498 332.161,223.498 336.5,223.5C 340.825,218.354 346.158,214.52 352.5,212C 353.219,209.444 354.886,208.277 357.5,208.5 Z"/></g>
<g><path style="opacity:1" fill="#57729b" d="M 68.5,205.5 C 68.5,205.833 68.5,206.167 68.5,206.5C 67.8363,211.473 67.5029,216.473 67.5,221.5C 68.5,221.5 69.5,221.5 70.5,221.5C 70.3651,224.417 71.0318,227.084 72.5,229.5C 71.8333,229.5 71.5,229.833 71.5,230.5C 68.0417,231.735 65.0417,233.735 62.5,236.5C 61.8333,235.833 61.1667,235.167 60.5,234.5C 59.8042,239.489 57.1375,241.489 52.5,240.5C 52.9767,239.522 53.6433,238.689 54.5,238C 46.6226,236.03 42.6226,239.197 42.5,247.5C 42.0269,248.906 41.0269,249.573 39.5,249.5C 40.3173,246.521 41.1506,243.521 42,240.5C 46.04,236.458 50.3733,232.791 55,229.5C 56.7811,225.605 58.2811,221.605 59.5,217.5C 62.7826,215.134 64.2826,211.801 64,207.5C 65.1096,205.963 66.6096,205.297 68.5,205.5 Z"/></g>
<g><path style="opacity:1" fill="#57729b" d="M 178.5,205.5 C 178.5,205.833 178.5,206.167 178.5,206.5C 177.836,211.473 177.503,216.473 177.5,221.5C 178.5,221.5 179.5,221.5 180.5,221.5C 180.365,224.417 181.032,227.084 182.5,229.5C 181.833,229.5 181.5,229.833 181.5,230.5C 178.042,231.735 175.042,233.735 172.5,236.5C 171.833,235.833 171.167,235.167 170.5,234.5C 169.804,239.489 167.138,241.489 162.5,240.5C 162.977,239.522 163.643,238.689 164.5,238C 156.623,236.03 152.623,239.197 152.5,247.5C 152.027,248.906 151.027,249.573 149.5,249.5C 150.317,246.521 151.151,243.521 152,240.5C 156.04,236.458 160.373,232.791 165,229.5C 166.781,225.605 168.281,221.605 169.5,217.5C 172.783,215.134 174.283,211.801 174,207.5C 175.11,205.963 176.61,205.297 178.5,205.5 Z"/></g>
<g><path style="opacity:1" fill="#57729b" d="M 288.5,205.5 C 288.5,205.833 288.5,206.167 288.5,206.5C 287.836,211.473 287.503,216.473 287.5,221.5C 288.5,221.5 289.5,221.5 290.5,221.5C 290.365,224.417 291.032,227.084 292.5,229.5C 291.833,229.5 291.5,229.833 291.5,230.5C 288.042,231.735 285.042,233.735 282.5,236.5C 281.833,235.833 281.167,235.167 280.5,234.5C 279.804,239.489 277.138,241.489 272.5,240.5C 272.977,239.522 273.643,238.689 274.5,238C 266.623,236.03 262.623,239.197 262.5,247.5C 262.027,248.906 261.027,249.573 259.5,249.5C 260.317,246.521 261.151,243.521 262,240.5C 266.04,236.458 270.373,232.791 275,229.5C 276.781,225.605 278.281,221.605 279.5,217.5C 282.783,215.134 284.283,211.801 284,207.5C 285.11,205.963 286.61,205.297 288.5,205.5 Z"/></g>
<g><path style="opacity:1" fill="#d7e2e4" d="M 137.5,232.5 C 137.5,239.167 137.5,245.833 137.5,252.5C 132.596,250.266 127.929,247.599 123.5,244.5C 122.859,243.518 122.193,242.518 121.5,241.5C 116.136,240.159 110.803,238.826 105.5,237.5C 105.167,235.5 104.833,233.5 104.5,231.5C 107.066,231.344 109.566,231.678 112,232.5C 113.658,235.457 115.991,237.79 119,239.5C 121.575,237.679 124.241,237.346 127,238.5C 129.046,237.089 130.879,235.423 132.5,233.5C 134.045,232.548 135.712,232.215 137.5,232.5 Z"/></g>
<g><path style="opacity:1" fill="#d7e2e4" d="M 247.5,232.5 C 247.5,239.167 247.5,245.833 247.5,252.5C 242.596,250.266 237.929,247.599 233.5,244.5C 232.859,243.518 232.193,242.518 231.5,241.5C 226.136,240.159 220.803,238.826 215.5,237.5C 215.167,235.5 214.833,233.5 214.5,231.5C 217.066,231.344 219.566,231.678 222,232.5C 223.658,235.457 225.991,237.79 229,239.5C 231.575,237.679 234.241,237.346 237,238.5C 239.046,237.089 240.879,235.423 242.5,233.5C 244.045,232.548 245.712,232.215 247.5,232.5 Z"/></g>
<g><path style="opacity:1" fill="#d7e2e4" d="M 357.5,232.5 C 357.5,239.167 357.5,245.833 357.5,252.5C 352.596,250.266 347.929,247.599 343.5,244.5C 342.859,243.518 342.193,242.518 341.5,241.5C 336.136,240.159 330.803,238.826 325.5,237.5C 325.167,235.5 324.833,233.5 324.5,231.5C 327.066,231.344 329.566,231.678 332,232.5C 333.658,235.457 335.991,237.79 339,239.5C 341.575,237.679 344.241,237.346 347,238.5C 349.046,237.089 350.879,235.423 352.5,233.5C 354.045,232.548 355.712,232.215 357.5,232.5 Z"/></g>
<g><path style="opacity:1" fill="#8c898e" d="M 91.5,245.5 C 89.5,246.5 87.5,247.5 85.5,248.5C 82.9783,248.872 80.9783,248.039 79.5,246C 81.5767,245.808 83.5767,245.308 85.5,244.5C 83.1186,242.119 80.7853,239.785 78.5,237.5C 78.1667,237.5 77.8333,237.5 77.5,237.5C 76.9811,232.758 76.9811,228.091 77.5,223.5C 83.2763,223.763 86.6097,226.763 87.5,232.5C 86.9788,234.524 86.8122,236.524 87,238.5C 89.9415,239.935 91.4415,242.269 91.5,245.5 Z"/></g>
<g><path style="opacity:1" fill="#8c898e" d="M 201.5,245.5 C 199.5,246.5 197.5,247.5 195.5,248.5C 192.978,248.872 190.978,248.039 189.5,246C 191.577,245.808 193.577,245.308 195.5,244.5C 193.119,242.119 190.785,239.785 188.5,237.5C 188.167,237.5 187.833,237.5 187.5,237.5C 186.981,232.758 186.981,228.091 187.5,223.5C 193.276,223.763 196.61,226.763 197.5,232.5C 196.979,234.524 196.812,236.524 197,238.5C 199.941,239.935 201.441,242.269 201.5,245.5 Z"/></g>
<g><path style="opacity:1" fill="#8c898e" d="M 311.5,245.5 C 309.5,246.5 307.5,247.5 305.5,248.5C 302.978,248.872 300.978,248.039 299.5,246C 301.577,245.808 303.577,245.308 305.5,244.5C 303.119,242.119 300.785,239.785 298.5,237.5C 298.167,237.5 297.833,237.5 297.5,237.5C 296.981,232.758 296.981,228.091 297.5,223.5C 303.276,223.763 306.61,226.763 307.5,232.5C 306.979,234.524 306.812,236.524 307,238.5C 309.941,239.935 311.441,242.269 311.5,245.5 Z"/></g>
<g><path style="opacity:1" fill="#425c85" d="M 71.5,230.5 C 70.538,236.316 67.2047,239.983 61.5,241.5C 59.5755,246.107 56.2421,248.773 51.5,249.5C 51.5,248.167 51.5,246.833 51.5,245.5C 48.4261,245.873 45.4261,246.539 42.5,247.5C 42.6226,239.197 46.6226,236.03 54.5,238C 53.6433,238.689 52.9767,239.522 52.5,240.5C 57.1375,241.489 59.8042,239.489 60.5,234.5C 61.1667,235.167 61.8333,235.833 62.5,236.5C 65.0417,233.735 68.0417,231.735 71.5,230.5 Z"/></g>
<g><path style="opacity:1" fill="#425c85" d="M 181.5,230.5 C 180.538,236.316 177.205,239.983 171.5,241.5C 169.575,246.107 166.242,248.773 161.5,249.5C 161.5,248.167 161.5,246.833 161.5,245.5C 158.426,245.873 155.426,246.539 152.5,247.5C 152.623,239.197 156.623,236.03 164.5,238C 163.643,238.689 162.977,239.522 162.5,240.5C 167.138,241.489 169.804,239.489 170.5,234.5C 171.167,235.167 171.833,235.833 172.5,236.5C 175.042,233.735 178.042,231.735 181.5,230.5 Z"/></g>
<g><path style="opacity:1" fill="#425c85" d="M 291.5,230.5 C 290.538,236.316 287.205,239.983 281.5,241.5C 279.575,246.107 276.242,248.773 271.5,249.5C 271.5,248.167 271.5,246.833 271.5,245.5C 268.426,245.873 265.426,246.539 262.5,247.5C 262.623,239.197 266.623,236.03 274.5,238C 273.643,238.689 272.977,239.522 272.5,240.5C 277.138,241.489 279.804,239.489 280.5,234.5C 281.167,235.167 281.833,235.833 282.5,236.5C 285.042,233.735 288.042,231.735 291.5,230.5 Z"/></g>
<g><path style="opacity:1" fill="#676878" d="M 78.5,237.5 C 80.7853,239.785 83.1186,242.119 85.5,244.5C 83.5767,245.308 81.5767,245.808 79.5,246C 80.9783,248.039 82.9783,248.872 85.5,248.5C 87.631,249.314 89.9644,249.814 92.5,250C 93.056,250.383 93.3893,250.883 93.5,251.5C 90.5176,251.037 87.5176,250.704 84.5,250.5C 81.6569,250.005 79.3235,248.505 77.5,246C 75.8659,245.506 74.1992,245.34 72.5,245.5C 71.6595,239.811 73.4928,238.478 78,241.5C 78.5,241.167 79,240.833 79.5,240.5C 78.8728,239.583 78.5394,238.583 78.5,237.5 Z"/></g>
<g><path style="opacity:1" fill="#676878" d="M 188.5,237.5 C 190.785,239.785 193.119,242.119 195.5,244.5C 193.577,245.308 191.577,245.808 189.5,246C 190.978,248.039 192.978,248.872 195.5,248.5C 197.631,249.314 199.964,249.814 202.5,250C 203.056,250.383 203.389,250.883 203.5,251.5C 200.518,251.037 197.518,250.704 194.5,250.5C 191.657,250.005 189.324,248.505 187.5,246C 185.866,245.506 184.199,245.34 182.5,245.5C 181.659,239.811 183.493,238.478 188,241.5C 188.5,241.167 189,240.833 189.5,240.5C 188.873,239.583 188.539,238.583 188.5,237.5 Z"/></g>
<g><path style="opacity:1" fill="#676878" d="M 298.5,237.5 C 300.785,239.785 303.119,242.119 305.5,244.5C 303.577,245.308 301.577,245.808 299.5,246C 300.978,248.039 302.978,248.872 305.5,248.5C 307.631,249.314 309.964,249.814 312.5,250C 313.056,250.383 313.389,250.883 313.5,251.5C 310.518,251.037 307.518,250.704 304.5,250.5C 301.657,250.005 299.324,248.505 297.5,246C 295.866,245.506 294.199,245.34 292.5,245.5C 291.659,239.811 293.493,238.478 298,241.5C 298.5,241.167 299,240.833 299.5,240.5C 298.873,239.583 298.539,238.583 298.5,237.5 Z"/></g>
<g><path style="opacity:1" fill="#2a3b5c" d="M 77.5,237.5 C 77.8333,237.5 78.1667,237.5 78.5,237.5C 78.5394,238.583 78.8728,239.583 79.5,240.5C 79,240.833 78.5,241.167 78,241.5C 73.4928,238.478 71.6595,239.811 72.5,245.5C 71.5,245.5 70.5,245.5 69.5,245.5C 69.7852,243.712 69.4519,242.045 68.5,240.5C 66.7801,241.955 64.7801,242.788 62.5,243C 59.8223,248.731 55.489,251.398 49.5,251C 48.9535,250.075 48.2868,249.242 47.5,248.5C 44.4354,250.25 41.1021,251.25 37.5,251.5C 37.5,251.167 37.5,250.833 37.5,250.5C 38.4916,250.672 39.1583,250.338 39.5,249.5C 41.0269,249.573 42.0269,248.906 42.5,247.5C 45.4261,246.539 48.4261,245.873 51.5,245.5C 51.5,246.833 51.5,248.167 51.5,249.5C 56.2421,248.773 59.5755,246.107 61.5,241.5C 67.2047,239.983 70.538,236.316 71.5,230.5C 71.5,229.833 71.8333,229.5 72.5,229.5C 73.397,228.402 74.2303,228.402 75,229.5C 75.4962,231.035 75.3295,232.535 74.5,234C 74.9778,235.642 75.9778,236.809 77.5,237.5 Z"/></g>
<g><path style="opacity:1" fill="#2a3b5c" d="M 187.5,237.5 C 187.833,237.5 188.167,237.5 188.5,237.5C 188.539,238.583 188.873,239.583 189.5,240.5C 189,240.833 188.5,241.167 188,241.5C 183.493,238.478 181.659,239.811 182.5,245.5C 181.5,245.5 180.5,245.5 179.5,245.5C 179.785,243.712 179.452,242.045 178.5,240.5C 176.78,241.955 174.78,242.788 172.5,243C 169.822,248.731 165.489,251.398 159.5,251C 158.953,250.075 158.287,249.242 157.5,248.5C 154.435,250.25 151.102,251.25 147.5,251.5C 147.5,251.167 147.5,250.833 147.5,250.5C 148.492,250.672 149.158,250.338 149.5,249.5C 151.027,249.573 152.027,248.906 152.5,247.5C 155.426,246.539 158.426,245.873 161.5,245.5C 161.5,246.833 161.5,248.167 161.5,249.5C 166.242,248.773 169.575,246.107 171.5,241.5C 177.205,239.983 180.538,236.316 181.5,230.5C 181.5,229.833 181.833,229.5 182.5,229.5C 183.397,228.402 184.23,228.402 185,229.5C 185.496,231.035 185.33,232.535 184.5,234C 184.978,235.642 185.978,236.809 187.5,237.5 Z"/></g>
<g><path style="opacity:1" fill="#2a3b5c" d="M 297.5,237.5 C 297.833,237.5 298.167,237.5 298.5,237.5C 298.539,238.583 298.873,239.583 299.5,240.5C 299,240.833 298.5,241.167 298,241.5C 293.493,238.478 291.659,239.811 292.5,245.5C 291.5,245.5 290.5,245.5 289.5,245.5C 289.785,243.712 289.452,242.045 288.5,240.5C 286.78,241.955 284.78,242.788 282.5,243C 279.822,248.731 275.489,251.398 269.5,251C 268.953,250.075 268.287,249.242 267.5,248.5C 264.435,250.25 261.102,251.25 257.5,251.5C 257.5,251.167 257.5,250.833 257.5,250.5C 258.492,250.672 259.158,250.338 259.5,249.5C 261.027,249.573 262.027,248.906 262.5,247.5C 265.426,246.539 268.426,245.873 271.5,245.5C 271.5,246.833 271.5,248.167 271.5,249.5C 276.242,248.773 279.575,246.107 281.5,241.5C 287.205,239.983 290.538,236.316 291.5,230.5C 291.5,229.833 291.833,229.5 292.5,229.5C 293.397,228.402 294.23,228.402 295,229.5C 295.496,231.035 295.33,232.535 294.5,234C 294.978,235.642 295.978,236.809 297.5,237.5 Z"/></g>
<g><path style="opacity:1" fill="#0a0d1b" d="M 72.5,245.5 C 74.1992,245.34 75.8659,245.506 77.5,246C 79.3235,248.505 81.6569,250.005 84.5,250.5C 90.324,252.664 95.6573,255.664 100.5,259.5C 92.3343,258.787 84.3343,257.287 76.5,255C 75.6634,253.989 75.33,252.822 75.5,251.5C 73.5165,251.383 71.8498,252.05 70.5,253.5C 69.8333,253.167 69.1667,252.833 68.5,252.5C 58.1471,255.027 47.8137,255.027 37.5,252.5C 37.5,252.167 37.5,251.833 37.5,251.5C 41.1021,251.25 44.4354,250.25 47.5,248.5C 48.2868,249.242 48.9535,250.075 49.5,251C 55.489,251.398 59.8223,248.731 62.5,243C 64.7801,242.788 66.7801,241.955 68.5,240.5C 69.4519,242.045 69.7852,243.712 69.5,245.5C 70.5,245.5 71.5,245.5 72.5,245.5 Z"/></g>
<g><path style="opacity:1" fill="#828ba4" d="M 105.5,239.5 C 111.911,239.934 117.911,241.601 123.5,244.5C 127.929,247.599 132.596,250.266 137.5,252.5C 137.5,253.167 137.5,253.833 137.5,254.5C 123.842,253.727 110.176,253.06 96.5,252.5C 95.609,251.89 94.609,251.557 93.5,251.5C 93.3893,250.883 93.056,250.383 92.5,250C 89.9644,249.814 87.631,249.314 85.5,248.5C 87.5,247.5 89.5,246.5 91.5,245.5C 93.7345,245.62 95.9011,245.287 98,244.5C 102.21,247.005 106.71,247.839 111.5,247C 112.38,245.644 112.714,244.144 112.5,242.5C 109.509,242.834 107.176,241.834 105.5,239.5 Z"/></g>
<g><path style="opacity:1" fill="#0a0d1b" d="M 182.5,245.5 C 184.199,245.34 185.866,245.506 187.5,246C 189.324,248.505 191.657,250.005 194.5,250.5C 200.324,252.664 205.657,255.664 210.5,259.5C 202.334,258.787 194.334,257.287 186.5,255C 185.663,253.989 185.33,252.822 185.5,251.5C 183.516,251.383 181.85,252.05 180.5,253.5C 179.833,253.167 179.167,252.833 178.5,252.5C 168.147,255.027 157.814,255.027 147.5,252.5C 147.5,252.167 147.5,251.833 147.5,251.5C 151.102,251.25 154.435,250.25 157.5,248.5C 158.287,249.242 158.953,250.075 159.5,251C 165.489,251.398 169.822,248.731 172.5,243C 174.78,242.788 176.78,241.955 178.5,240.5C 179.452,242.045 179.785,243.712 179.5,245.5C 180.5,245.5 181.5,245.5 182.5,245.5 Z"/></g>
<g><path style="opacity:1" fill="#828ba4" d="M 215.5,239.5 C 221.911,239.934 227.911,241.601 233.5,244.5C 237.929,247.599 242.596,250.266 247.5,252.5C 247.5,253.167 247.5,253.833 247.5,254.5C 233.842,253.727 220.176,253.06 206.5,252.5C 205.609,251.89 204.609,251.557 203.5,251.5C 203.389,250.883 203.056,250.383 202.5,250C 199.964,249.814 197.631,249.314 195.5,248.5C 197.5,247.5 199.5,246.5 201.5,245.5C 203.734,245.62 205.901,245.287 208,244.5C 212.21,247.005 216.71,247.839 221.5,247C 222.38,245.644 222.714,244.144 222.5,242.5C 219.509,242.834 217.176,241.834 215.5,239.5 Z"/></g>
<g><path style="opacity:1" fill="#0a0d1b" d="M 292.5,245.5 C 294.199,245.34 295.866,245.506 297.5,246C 299.324,248.505 301.657,250.005 304.5,250.5C 310.324,252.664 315.657,255.664 320.5,259.5C 312.334,258.787 304.334,257.287 296.5,255C 295.663,253.989 295.33,252.822 295.5,251.5C 293.516,251.383 291.85,252.05 290.5,253.5C 289.833,253.167 289.167,252.833 288.5,252.5C 278.147,255.027 267.814,255.027 257.5,252.5C 257.5,252.167 257.5,251.833 257.5,251.5C 261.102,251.25 264.435,250.25 267.5,248.5C 268.287,249.242 268.953,250.075 269.5,251C 275.489,251.398 279.822,248.731 282.5,243C 284.78,242.788 286.78,241.955 288.5,240.5C 289.452,242.045 289.785,243.712 289.5,245.5C 290.5,245.5 291.5,245.5 292.5,245.5 Z"/></g>
<g><path style="opacity:1" fill="#828ba4" d="M 325.5,239.5 C 331.911,239.934 337.911,241.601 343.5,244.5C 347.929,247.599 352.596,250.266 357.5,252.5C 357.5,253.167 357.5,253.833 357.5,254.5C 343.842,253.727 330.176,253.06 316.5,252.5C 315.609,251.89 314.609,251.557 313.5,251.5C 313.389,250.883 313.056,250.383 312.5,250C 309.964,249.814 307.631,249.314 305.5,248.5C 307.5,247.5 309.5,246.5 311.5,245.5C 313.734,245.62 315.901,245.287 318,244.5C 322.21,247.005 326.71,247.839 331.5,247C 332.38,245.644 332.714,244.144 332.5,242.5C 329.509,242.834 327.176,241.834 325.5,239.5 Z"/></g>
<g><path style="opacity:1" fill="#2f3b54" d="M 84.5,250.5 C 87.5176,250.704 90.5176,251.037 93.5,251.5C 94.609,251.557 95.609,251.89 96.5,252.5C 107.107,255.88 118.107,258.713 129.5,261C 132.146,261.497 134.813,261.664 137.5,261.5C 137.5,261.833 137.5,262.167 137.5,262.5C 125.265,260.526 112.932,259.526 100.5,259.5C 95.6573,255.664 90.324,252.664 84.5,250.5 Z"/></g>
<g><path style="opacity:1" fill="#2f3b54" d="M 194.5,250.5 C 197.518,250.704 200.518,251.037 203.5,251.5C 204.609,251.557 205.609,251.89 206.5,252.5C 217.107,255.88 228.107,258.713 239.5,261C 242.146,261.497 244.813,261.664 247.5,261.5C 247.5,261.833 247.5,262.167 247.5,262.5C 235.265,260.526 222.932,259.526 210.5,259.5C 205.657,255.664 200.324,252.664 194.5,250.5 Z"/></g>
<g><path style="opacity:1" fill="#2f3b54" d="M 304.5,250.5 C 307.518,250.704 310.518,251.037 313.5,251.5C 314.609,251.557 315.609,251.89 316.5,252.5C 327.107,255.88 338.107,258.713 349.5,261C 352.146,261.497 354.813,261.664 357.5,261.5C 357.5,261.833 357.5,262.167 357.5,262.5C 345.265,260.526 332.932,259.526 320.5,259.5C 315.657,255.664 310.324,252.664 304.5,250.5 Z"/></g>
<g><path style="opacity:1" fill="#5a7090" d="M 96.5,252.5 C 110.176,253.06 123.842,253.727 137.5,254.5C 137.5,256.833 137.5,259.167 137.5,261.5C 134.813,261.664 132.146,261.497 129.5,261C 118.107,258.713 107.107,255.88 96.5,252.5 Z"/></g>
<g><path style="opacity:1" fill="#5a7090" d="M 206.5,252.5 C 220.176,253.06 233.842,253.727 247.5,254.5C 247.5,256.833 247.5,259.167 247.5,261.5C 244.813,261.664 242.146,261.497 239.5,261C 228.107,258.713 217.107,255.88 206.5,252.5 Z"/></g>
<g><path style="opacity:1" fill="#5a7090" d="M 316.5,252.5 C 330.176,253.06 343.842,253.727 357.5,254.5C 357.5,256.833 357.5,259.167 357.5,261.5C 354.813,261.664 352.146,261.497 349.5,261C 338.107,258.713 327.107,255.88 316.5,252.5 Z"/></g>
<g><path style="opacity:1" fill="#020305" d="M 100.5,259.5 C 112.932,259.526 125.265,260.526 137.5,262.5C 137.5,266.167 137.5,269.833 137.5,273.5C 104.167,273.5 70.8333,273.5 37.5,273.5C 37.5,266.5 37.5,259.5 37.5,252.5C 47.8137,255.027 58.1471,255.027 68.5,252.5C 69.1667,252.833 69.8333,253.167 70.5,253.5C 71.8498,252.05 73.5165,251.383 75.5,251.5C 75.33,252.822 75.6634,253.989 76.5,255C 84.3343,257.287 92.3343,258.787 100.5,259.5 Z"/></g>
<g><path style="opacity:1" fill="#020305" d="M 210.5,259.5 C 222.932,259.526 235.265,260.526 247.5,262.5C 247.5,266.167 247.5,269.833 247.5,273.5C 214.167,273.5 180.833,273.5 147.5,273.5C 147.5,266.5 147.5,259.5 147.5,252.5C 157.814,255.027 168.147,255.027 178.5,252.5C 179.167,252.833 179.833,253.167 180.5,253.5C 181.85,252.05 183.516,251.383 185.5,251.5C 185.33,252.822 185.663,253.989 186.5,255C 194.334,257.287 202.334,258.787 210.5,259.5 Z"/></g>
<g><path style="opacity:1" fill="#020305" d="M 320.5,259.5 C 332.932,259.526 345.265,260.526 357.5,262.5C 357.5,266.167 357.5,269.833 357.5,273.5C 324.167,273.5 290.833,273.5 257.5,273.5C 257.5,266.5 257.5,259.5 257.5,252.5C 267.814,255.027 278.147,255.027 288.5,252.5C 289.167,252.833 289.833,253.167 290.5,253.5C 291.85,252.05 293.516,251.383 295.5,251.5C 295.33,252.822 295.663,253.989 296.5,255C 304.334,257.287 312.334,258.787 320.5,259.5 Z"/></g>
<g><path style="opacity:1" fill="#151515" d="M 74.5,288.5 C 73.1667,291.5 73.1667,294.5 74.5,297.5C 74.5143,298.612 73.5143,298.779 71.5,298C 72.8333,294.667 72.8333,291.333 71.5,288C 74.2272,287.182 76.8938,287.348 79.5,288.5C 78.1125,288.807 76.4458,288.807 74.5,288.5 Z"/></g>
<g><path style="opacity:1" fill="#151515" d="M 184.5,288.5 C 183.167,291.5 183.167,294.5 184.5,297.5C 184.514,298.612 183.514,298.779 181.5,298C 182.833,294.667 182.833,291.333 181.5,288C 184.227,287.182 186.894,287.348 189.5,288.5C 188.113,288.807 186.446,288.807 184.5,288.5 Z"/></g>
<g><path style="opacity:1" fill="#151515" d="M 294.5,288.5 C 293.167,291.5 293.167,294.5 294.5,297.5C 294.514,298.612 293.514,298.779 291.5,298C 292.833,294.667 292.833,291.333 291.5,288C 294.227,287.182 296.894,287.348 299.5,288.5C 298.113,288.807 296.446,288.807 294.5,288.5 Z"/></g>
<g><path style="opacity:1" fill="#2e2e2e" d="M 208.5,287.5 C 213.041,287.331 213.374,287.998 209.5,289.5C 214.759,292.76 214.759,295.76 209.5,298.5C 208.833,298.333 208.167,298.167 207.5,298C 212.828,295.778 212.828,293.278 207.5,290.5C 208.127,289.583 208.461,288.583 208.5,287.5 Z"/></g>
<g><path style="opacity:1" fill="#131313" d="M 81.5,290.5 C 82.21,292.893 82.8767,295.393 83.5,298C 82.5,298.667 81.5,298.667 80.5,298C 81.435,295.619 81.7683,293.119 81.5,290.5 Z"/></g>
<g><path style="opacity:1" fill="#131313" d="M 191.5,290.5 C 192.21,292.893 192.877,295.393 193.5,298C 192.5,298.667 191.5,298.667 190.5,298C 191.435,295.619 191.768,293.119 191.5,290.5 Z"/></g>
<g><path style="opacity:1" fill="#131313" d="M 301.5,290.5 C 302.21,292.893 302.877,295.393 303.5,298C 302.5,298.667 301.5,298.667 300.5,298C 301.435,295.619 301.768,293.119 301.5,290.5 Z"/></g>
<g><path style="opacity:1" fill="#626262" d="M 74.5,288.5 C 74.5,289.5 74.5,290.5 74.5,291.5C 75.8221,291.67 76.9887,291.337 78,290.5C 78.6667,291.833 78.6667,293.167 78,294.5C 76.9887,293.663 75.8221,293.33 74.5,293.5C 74.5,294.833 74.5,296.167 74.5,297.5C 73.1667,294.5 73.1667,291.5 74.5,288.5 Z"/></g>
<g><path style="opacity:1" fill="#626262" d="M 184.5,288.5 C 184.5,289.5 184.5,290.5 184.5,291.5C 185.822,291.67 186.989,291.337 188,290.5C 188.667,291.833 188.667,293.167 188,294.5C 186.989,293.663 185.822,293.33 184.5,293.5C 184.5,294.833 184.5,296.167 184.5,297.5C 183.167,294.5 183.167,291.5 184.5,288.5 Z"/></g>
<g><path style="opacity:1" fill="#626262" d="M 294.5,288.5 C 294.5,289.5 294.5,290.5 294.5,291.5C 295.822,291.67 296.989,291.337 298,290.5C 298.667,291.833 298.667,293.167 298,294.5C 296.989,293.663 295.822,293.33 294.5,293.5C 294.5,294.833 294.5,296.167 294.5,297.5C 293.167,294.5 293.167,291.5 294.5,288.5 Z"/></g>
<g><path style="opacity:1" fill="#292929" d="M 100.5,287.5 C 102.154,289.56 103.154,292.06 103.5,295C 102.929,296.205 102.262,297.372 101.5,298.5C 100.614,297.675 100.281,296.675 100.5,295.5C 99.0222,295.762 97.6888,295.429 96.5,294.5C 97.5575,294.094 98.8908,294.094 100.5,294.5C 99.9182,292.002 99.9182,289.669 100.5,287.5 Z"/></g>
<g><path style="opacity:1" fill="#3a3a3a" d="M 318.5,288.5 C 319.239,288.369 319.906,288.536 320.5,289C 318.963,291.313 318.463,293.813 319,296.5C 319.414,296.957 319.914,297.291 320.5,297.5C 321.241,295.312 321.574,293.312 321.5,291.5C 323.694,293.315 324.028,295.482 322.5,298C 319.783,299.033 317.949,298.2 317,295.5C 316.391,292.935 316.891,290.601 318.5,288.5 Z"/></g>
<g><path style="opacity:1" fill="#434343" d="M 90.5,300.5 C 88.6365,301.793 86.6365,301.793 84.5,300.5C 85.2435,297.557 85.7435,294.557 86,291.5C 91.2266,289.755 92.3933,291.088 89.5,295.5C 89.7948,294.174 89.2948,292.841 88,291.5C 87.7489,293.433 87.2489,295.266 86.5,297C 88.1341,297.494 89.8008,297.66 91.5,297.5C 91.7373,298.791 91.404,299.791 90.5,300.5 Z"/></g>
<g><path style="opacity:1" fill="#ececec" d="M 90.5,300.5 C 89.0222,300.762 87.6888,300.429 86.5,299.5C 87.1667,299.167 87.8333,298.833 88.5,298.5C 89.7133,298.747 90.38,299.414 90.5,300.5 Z"/></g>
<g><path style="opacity:1" fill="#434343" d="M 200.5,300.5 C 198.636,301.793 196.636,301.793 194.5,300.5C 195.244,297.557 195.744,294.557 196,291.5C 201.227,289.755 202.393,291.088 199.5,295.5C 199.795,294.174 199.295,292.841 198,291.5C 197.749,293.433 197.249,295.266 196.5,297C 198.134,297.494 199.801,297.66 201.5,297.5C 201.737,298.791 201.404,299.791 200.5,300.5 Z"/></g>
<g><path style="opacity:1" fill="#ececec" d="M 200.5,300.5 C 199.022,300.762 197.689,300.429 196.5,299.5C 197.167,299.167 197.833,298.833 198.5,298.5C 199.713,298.747 200.38,299.414 200.5,300.5 Z"/></g>
<g><path style="opacity:1" fill="#434343" d="M 310.5,300.5 C 308.636,301.793 306.636,301.793 304.5,300.5C 305.244,297.557 305.744,294.557 306,291.5C 311.227,289.755 312.393,291.088 309.5,295.5C 309.795,294.174 309.295,292.841 308,291.5C 307.749,293.433 307.249,295.266 306.5,297C 308.134,297.494 309.801,297.66 311.5,297.5C 311.737,298.791 311.404,299.791 310.5,300.5 Z"/></g>
<g><path style="opacity:1" fill="#ececec" d="M 310.5,300.5 C 309.022,300.762 307.689,300.429 306.5,299.5C 307.167,299.167 307.833,298.833 308.5,298.5C 309.713,298.747 310.38,299.414 310.5,300.5 Z"/></g>
</svg>
